<svg width="833" height="289" viewBox="0 0 833 289" fill="none" xmlns="http://www.w3.org/2000/svg">
<g filter="url(#filter0_d)">
<path d="M365 168.215C365 141.494 378.499 117.928 399.047 103.958C390.367 103.34 381.615 104.779 372.945 105.3C364.416 105.813 355.781 104.679 347.539 102.455C330.493 97.8544 315.693 87.3351 302.77 75.3039C276.618 50.9549 260.386 25.104 255.945 3.00125C252.872 37.7289 264.568 63.967 283.232 87.3278C301.895 110.689 325.315 124.903 356.578 139.331C309.083 129.712 266.999 94.8426 249.643 64.1589C255.276 91.8368 271.082 114.327 289.845 133.019C308.607 151.71 325.616 164.882 353.119 180.025C318.977 166.582 287.832 145.583 262.568 118.972C268.386 143.529 286.466 163.547 306.919 178.33C327.373 193.111 350.525 203.666 372.134 216.701C393.743 229.735 414.457 246.006 426.15 268.369C423.651 258.202 418.798 248.826 413.058 240.019C384.853 228.383 365 200.62 365 168.215Z" fill="url(#paint0_linear)"/>
</g>
<g filter="url(#filter1_d)">
<path d="M509.031 168.215C509.031 141.494 495.532 117.928 474.984 103.958C483.664 103.34 492.416 104.779 501.086 105.3C509.616 105.813 518.251 104.679 526.492 102.455C543.538 97.8544 558.338 87.3351 571.261 75.3039C597.413 50.9549 613.645 25.104 618.087 3.00125C621.16 37.7289 609.463 63.967 590.799 87.3278C572.137 110.689 548.716 124.903 517.454 139.331C564.948 129.712 607.032 94.8426 624.389 64.1589C618.755 91.8368 602.949 114.327 584.186 133.019C565.424 151.71 548.415 164.882 520.913 180.025C555.055 166.582 586.199 145.583 611.463 118.972C605.646 143.529 587.565 163.547 567.112 178.33C546.658 193.111 523.507 203.666 501.898 216.701C480.289 229.735 459.575 246.006 447.881 268.369C450.38 258.202 455.233 248.826 460.973 240.019C489.178 228.383 509.031 200.62 509.031 168.215Z" fill="url(#paint1_linear)"/>
</g>
<g filter="url(#filter2_d)">
<ellipse cx="437.189" cy="166.801" rx="26.691" ry="26.102" fill="white"/>
<path d="M418.847 158.914H416.669C416.019 158.914 415.492 158.381 415.492 157.722V157.472C415.492 156.814 416.019 156.281 416.669 156.281H418.847C419.497 156.281 420.024 156.814 420.024 157.472V157.722C420.024 158.381 419.497 158.914 418.847 158.914Z" fill="url(#paint2_radial)"/>
<path d="M418.926 158.082L420.4 159.919L421.31 158.81L419.407 157.6L418.926 158.082Z" fill="url(#paint3_radial)"/>
<path d="M454.077 158.76L456.255 158.786C456.905 158.793 457.438 158.266 457.446 157.609L457.448 157.358C457.456 156.7 456.935 156.161 456.286 156.153L454.108 156.127C453.458 156.12 452.925 156.647 452.917 157.305L452.914 157.555C452.906 158.212 453.428 158.752 454.077 158.76Z" fill="url(#paint4_radial)"/>
<path d="M454.012 157.926L452.516 159.746L451.619 158.626L453.536 157.439L454.012 157.926Z" fill="url(#paint5_radial)"/>
<path d="M456.807 177.686H416.22C416.055 177.686 415.922 177.55 415.922 177.384V177.123C415.922 176.956 416.055 176.82 416.22 176.82H456.807C456.972 176.82 457.105 176.956 457.105 177.123V177.384C457.105 177.55 456.972 177.686 456.807 177.686Z" fill="url(#paint6_radial)"/>
<path d="M454.529 172.025H450.618C450.381 172.025 450.189 172.22 450.189 172.459V176.575C450.189 176.815 450.381 177.009 450.618 177.009H454.529C454.765 177.009 454.957 176.815 454.957 176.575V172.459C454.957 172.22 454.765 172.025 454.529 172.025Z" fill="url(#paint7_radial)"/>
<path d="M454.49 172.025H454.324C454.35 172.564 454.389 173.105 454.3 173.639C454.157 174.496 453.661 175.319 452.873 175.866C452.133 176.381 451.129 176.632 450.189 176.492V176.611C450.189 176.831 450.399 177.009 450.657 177.009H454.49C454.748 177.009 454.957 176.831 454.957 176.611V172.423C454.957 172.204 454.748 172.025 454.49 172.025Z" fill="url(#paint8_radial)"/>
<path d="M451.121 175.462C451.008 175.462 450.9 175.392 450.844 175.305C450.781 175.205 450.771 175.088 450.764 174.975C450.726 174.351 450.728 173.726 450.734 173.102C450.736 172.94 450.781 172.761 451 172.719C451.023 172.715 451.046 172.713 451.07 172.713C451.204 172.713 451.35 172.778 451.41 172.878C451.474 172.98 451.473 173.102 451.469 173.218C451.454 173.82 451.438 174.42 451.423 175.022C451.421 175.109 451.418 175.198 451.383 175.28C451.347 175.362 451.272 175.437 451.172 175.456C451.155 175.46 451.138 175.462 451.121 175.462Z" fill="url(#paint9_radial)"/>
<path d="M423.266 172.025H419.354C419.117 172.025 418.926 172.22 418.926 172.459V176.575C418.926 176.815 419.117 177.009 419.354 177.009H423.266C423.502 177.009 423.693 176.815 423.693 176.575V172.459C423.693 172.22 423.502 172.025 423.266 172.025Z" fill="url(#paint10_radial)"/>
<path d="M423.226 172.025H423.06C423.086 172.564 423.125 173.105 423.037 173.639C422.894 174.496 422.398 175.319 421.61 175.866C420.869 176.381 419.866 176.632 418.926 176.492V176.611C418.926 176.831 419.135 177.009 419.393 177.009H423.226C423.484 177.009 423.693 176.831 423.693 176.611V172.423C423.693 172.204 423.484 172.025 423.226 172.025Z" fill="url(#paint11_radial)"/>
<path d="M448.871 151.164C448.871 151.164 448.4 149.953 444.198 149.413C440.575 148.948 432.419 148.948 428.796 149.413C424.594 149.953 424.124 151.164 424.124 151.164L420.385 159.653H452.61L448.871 151.164Z" fill="url(#paint12_radial)"/>
<path d="M456.443 165.345C456.166 161.12 452.612 159.648 452.612 159.648H420.386C420.386 159.648 416.832 161.12 416.555 165.345C416.139 171.703 417.263 172.285 417.263 172.285H455.735C455.735 172.285 456.859 171.703 456.443 165.345Z" fill="url(#paint13_radial)"/>
<path d="M454.478 163.223C454.138 162.84 418.943 162.84 418.603 163.223C418.252 163.619 419.609 166.06 419.609 166.06H453.472C453.472 166.06 454.829 163.619 454.478 163.223Z" fill="url(#paint14_radial)"/>
<path d="M419.689 165.91H453.387C453.484 165.73 453.746 165.238 453.977 164.722C454.439 163.691 454.406 163.398 454.382 163.328C453.748 163.177 446.316 163.067 436.538 163.067C426.759 163.067 419.328 163.177 418.694 163.328C418.669 163.398 418.637 163.691 419.098 164.722C419.33 165.238 419.592 165.73 419.689 165.91ZM453.55 166.192H419.525L419.485 166.12C419.482 166.115 419.14 165.497 418.845 164.84C418.288 163.595 418.366 163.267 418.497 163.12C418.565 163.043 418.658 162.938 424.299 162.857C427.543 162.811 431.889 162.785 436.538 162.785C441.186 162.785 445.532 162.811 448.776 162.857C454.418 162.938 454.511 163.043 454.579 163.12C454.709 163.267 454.788 163.595 454.231 164.84C453.936 165.497 453.594 166.115 453.59 166.12L453.55 166.192Z" fill="url(#paint15_radial)"/>
<path d="M448.195 151.496C448.195 151.496 448.062 150.857 446.642 150.453C445.617 150.161 440.84 149.877 436.624 149.877C432.642 149.877 427.632 150.161 426.606 150.453C425.186 150.857 425.053 151.496 425.053 151.496L422.666 159.05C422.666 159.05 431.184 158.627 436.493 158.515C443.086 158.374 450.582 159.05 450.582 159.05L448.195 151.496Z" fill="url(#paint16_radial)"/>
<path d="M425.302 152.306C425.302 152.306 425.431 151.667 426.821 151.263C427.824 150.971 432.727 150.687 436.624 150.687C440.749 150.687 445.424 150.971 446.427 151.263C447.817 151.667 447.946 152.306 447.946 152.306L450.018 159.002C450.381 159.032 450.582 159.05 450.582 159.05L448.195 151.496C448.195 151.496 448.062 150.857 446.642 150.453C445.617 150.161 440.84 149.877 436.624 149.877C432.642 149.877 427.632 150.161 426.606 150.453C425.186 150.857 425.053 151.496 425.053 151.496L422.666 159.05C422.666 159.05 422.867 159.04 423.224 159.023L425.302 152.306Z" fill="url(#paint17_radial)"/>
<path d="M418.717 161.948L420.382 160.429C420.382 160.429 432.562 159.279 436.518 159.245C441.189 159.206 452.238 160.232 452.238 160.232L454.153 161.948C454.153 161.948 445.853 160.596 436.886 160.596C427.753 160.596 418.717 161.948 418.717 161.948Z" fill="url(#paint18_radial)"/>
<path d="M416.512 169.492C416.687 171.991 417.262 172.29 417.262 172.29H455.734C455.734 172.29 456.309 171.991 456.484 169.492H416.512Z" fill="url(#paint19_radial)"/>
<path d="M456.247 170.499H416.78C416.306 170.499 415.922 170.109 415.922 169.629V167.472C415.922 166.993 416.306 166.604 416.78 166.604H456.247C456.721 166.604 457.105 166.993 457.105 167.472V169.629C457.105 170.109 456.721 170.499 456.247 170.499Z" fill="url(#paint20_radial)"/>
<path d="M454.005 167.469H416.774C416.602 167.469 416.463 167.329 416.463 167.155V167.154C416.463 166.98 416.602 166.84 416.774 166.84H454.005C454.176 166.84 454.315 166.98 454.315 167.154V167.155C454.315 167.329 454.176 167.469 454.005 167.469Z" fill="url(#paint21_radial)"/>
<path d="M419.867 175.462C419.754 175.462 419.646 175.392 419.591 175.305C419.527 175.205 419.517 175.088 419.51 174.975C419.472 174.351 419.474 173.726 419.48 173.102C419.482 172.94 419.526 172.761 419.746 172.719C419.768 172.715 419.792 172.713 419.816 172.713C419.95 172.713 420.096 172.778 420.157 172.878C420.22 172.98 420.219 173.102 420.216 173.218C420.2 173.82 420.185 174.42 420.169 175.022C420.167 175.109 420.165 175.198 420.129 175.28C420.093 175.362 420.018 175.437 419.918 175.456C419.901 175.46 419.884 175.462 419.867 175.462Z" fill="url(#paint22_radial)"/>
<path d="M423.699 159C423.699 159 423.699 159 423.699 158.999C424.319 158.97 425.183 158.93 426.197 158.885L423.699 159Z" fill="url(#paint23_radial)"/>
<path d="M423.699 159.006C423.707 158.994 425.458 156.076 426.669 154.83C427.947 153.514 430.281 151.82 431.73 150.815C432.339 150.787 432.973 150.761 433.611 150.742C432.383 151.687 430.423 153.313 429.084 154.999C427.899 156.491 426.202 158.886 426.197 158.892C425.183 158.937 424.319 158.978 423.699 159.006Z" fill="url(#paint24_radial)"/>
<path d="M431.732 150.807C432.487 150.284 433.001 149.947 433.001 149.947L434.75 149.895C434.75 149.895 434.295 150.21 433.613 150.734C432.975 150.754 432.342 150.779 431.732 150.807Z" fill="url(#paint25_radial)"/>
<path d="M431.887 158.649C433.354 158.596 434.813 158.549 436.107 158.519L431.887 158.649ZM443.22 150.075C442.794 150.049 442.345 150.024 441.878 150.001C441.88 150 441.88 150 441.88 150L443.241 150.056C443.241 150.056 443.234 150.063 443.22 150.075Z" fill="url(#paint26_radial)"/>
<path d="M431.887 158.651C431.899 158.637 434.335 155.747 436.19 154.116C437.4 153.052 439.445 151.631 440.726 150.768C441.295 150.79 441.847 150.816 442.37 150.845C441.353 151.776 439.702 153.326 438.855 154.327C437.581 155.831 436.114 158.507 436.107 158.521C434.813 158.551 433.354 158.598 431.887 158.651Z" fill="url(#paint27_radial)"/>
<path d="M442.369 150.852C441.846 150.823 441.294 150.797 440.725 150.774C441.384 150.33 441.84 150.034 441.877 150.01C442.344 150.032 442.793 150.057 443.218 150.083C443.134 150.159 442.812 150.447 442.369 150.852Z" fill="url(#paint28_radial)"/>
<path d="M447.803 158.837L445.014 158.673C446.05 158.726 446.997 158.783 447.803 158.837ZM449.406 155.31L449.224 154.734L449.406 155.31Z" fill="url(#paint29_radial)"/>
<path d="M447.803 158.843C446.997 158.789 446.05 158.732 445.014 158.68C445.076 158.671 447.781 156.111 448.822 155.123L449.217 156.403L447.803 158.843Z" fill="url(#paint30_radial)"/>
<path d="M449.214 156.397L448.818 155.117C449.065 154.881 449.219 154.736 449.221 154.734L449.403 155.31L449.559 155.803L449.214 156.397Z" fill="url(#paint31_radial)"/>
<path d="M441.851 169.782H431.348C430.997 169.782 430.711 169.494 430.711 169.137V167.88C430.711 167.523 430.997 167.234 431.348 167.234H441.851C442.203 167.234 442.488 167.523 442.488 167.88V169.137C442.488 169.494 442.203 169.782 441.851 169.782Z" fill="url(#paint32_radial)"/>
<path d="M421.797 164.327C421.797 165.457 420.894 166.373 419.78 166.373C418.667 166.373 417.764 165.457 417.764 164.327C417.764 163.196 418.667 162.279 419.78 162.279C420.894 162.279 421.797 163.196 421.797 164.327Z" fill="url(#paint33_radial)"/>
<path d="M421.493 164.351C421.493 165.316 420.723 166.098 419.772 166.098C418.821 166.098 418.051 165.316 418.051 164.351C418.051 163.386 418.821 162.604 419.772 162.604C420.723 162.604 421.493 163.386 421.493 164.351Z" fill="url(#paint34_radial)"/>
<path d="M420.767 162.926C421.009 163.227 421.155 163.611 421.155 164.03C421.155 164.995 420.384 165.778 419.433 165.778C419.062 165.778 418.719 165.658 418.438 165.455C418.753 165.847 419.233 166.098 419.771 166.098C420.722 166.098 421.492 165.316 421.492 164.351C421.492 163.762 421.206 163.242 420.767 162.926Z" fill="url(#paint35_radial)"/>
<path d="M419.061 165.085C418.888 165.085 418.71 165.001 418.597 164.865C418.422 164.654 418.383 164.355 418.427 164.082C418.505 163.588 418.865 163.17 419.324 162.999C419.427 162.961 419.618 162.926 419.811 162.926C420.105 162.926 420.404 163.009 420.398 163.295C420.393 163.477 420.182 163.572 420.004 163.597C419.826 163.622 419.618 163.638 419.521 163.791C419.419 163.952 419.504 164.16 419.539 164.346C419.584 164.586 419.525 164.866 419.326 165.005C419.247 165.06 419.155 165.085 419.061 165.085Z" fill="url(#paint36_radial)"/>
<path d="M426.065 164.277C426.065 165.409 425.161 166.325 424.048 166.325C422.934 166.325 422.031 165.409 422.031 164.277C422.031 163.147 422.934 162.23 424.048 162.23C425.161 162.23 426.065 163.147 426.065 164.277Z" fill="url(#paint37_radial)"/>
<path d="M425.771 164.302C425.771 165.267 425 166.05 424.049 166.05C423.099 166.05 422.328 165.267 422.328 164.302C422.328 163.337 423.099 162.555 424.049 162.555C425 162.555 425.771 163.337 425.771 164.302Z" fill="url(#paint38_radial)"/>
<path d="M425.043 162.873C425.285 163.175 425.43 163.559 425.43 163.978C425.43 164.943 424.659 165.725 423.709 165.725C423.338 165.725 422.994 165.606 422.713 165.403C423.029 165.795 423.509 166.046 424.047 166.046C424.998 166.046 425.768 165.263 425.768 164.298C425.768 163.71 425.481 163.19 425.043 162.873Z" fill="url(#paint39_radial)"/>
<path d="M423.334 165.033C423.162 165.033 422.984 164.949 422.871 164.813C422.695 164.602 422.656 164.303 422.7 164.03C422.779 163.536 423.139 163.118 423.597 162.947C423.7 162.909 423.891 162.873 424.084 162.873C424.379 162.873 424.677 162.957 424.671 163.243C424.667 163.425 424.456 163.52 424.277 163.545C424.1 163.57 423.891 163.586 423.794 163.739C423.693 163.9 423.777 164.107 423.812 164.294C423.858 164.534 423.798 164.813 423.6 164.953C423.521 165.008 423.429 165.033 423.334 165.033Z" fill="url(#paint40_radial)"/>
<path d="M451.313 164.469C451.313 165.6 450.41 166.516 449.296 166.516C448.182 166.516 447.279 165.6 447.279 164.469C447.279 163.338 448.182 162.422 449.296 162.422C450.41 162.422 451.313 163.338 451.313 164.469Z" fill="url(#paint41_radial)"/>
<path d="M451.019 164.491C451.019 165.457 450.248 166.239 449.297 166.239C448.347 166.239 447.576 165.457 447.576 164.491C447.576 163.526 448.347 162.744 449.297 162.744C450.248 162.744 451.019 163.526 451.019 164.491Z" fill="url(#paint42_radial)"/>
<path d="M450.292 163.064C450.535 163.365 450.68 163.75 450.68 164.169C450.68 165.134 449.909 165.916 448.958 165.916C448.587 165.916 448.244 165.797 447.963 165.594C448.278 165.986 448.759 166.237 449.296 166.237C450.247 166.237 451.018 165.455 451.018 164.489C451.018 163.901 450.731 163.381 450.292 163.064Z" fill="url(#paint43_radial)"/>
<path d="M448.586 165.224C448.414 165.224 448.235 165.14 448.122 165.004C447.948 164.793 447.908 164.493 447.952 164.221C448.03 163.727 448.39 163.309 448.849 163.138C448.952 163.1 449.144 163.064 449.336 163.064C449.631 163.064 449.929 163.148 449.923 163.434C449.919 163.616 449.707 163.711 449.529 163.736C449.352 163.761 449.143 163.777 449.046 163.93C448.944 164.091 449.029 164.298 449.064 164.485C449.109 164.725 449.05 165.004 448.852 165.143C448.773 165.199 448.68 165.224 448.586 165.224Z" fill="url(#paint44_radial)"/>
<path d="M455.625 164.487C455.625 165.618 454.722 166.534 453.608 166.534C452.494 166.534 451.592 165.618 451.592 164.487C451.592 163.356 452.494 162.439 453.608 162.439C454.722 162.439 455.625 163.356 455.625 164.487Z" fill="url(#paint45_radial)"/>
<path d="M455.331 164.505C455.331 165.471 454.561 166.253 453.61 166.253C452.659 166.253 451.889 165.471 451.889 164.505C451.889 163.54 452.659 162.758 453.61 162.758C454.561 162.758 455.331 163.54 455.331 164.505Z" fill="url(#paint46_radial)"/>
<path d="M454.604 163.082C454.847 163.383 454.992 163.767 454.992 164.186C454.992 165.151 454.222 165.933 453.271 165.933C452.9 165.933 452.556 165.814 452.275 165.611C452.591 166.003 453.071 166.254 453.609 166.254C454.559 166.254 455.33 165.472 455.33 164.506C455.33 163.919 455.044 163.398 454.604 163.082Z" fill="url(#paint47_radial)"/>
<path d="M452.899 165.241C452.726 165.241 452.548 165.157 452.435 165.021C452.26 164.81 452.221 164.511 452.264 164.239C452.343 163.745 452.703 163.326 453.162 163.156C453.265 163.117 453.456 163.082 453.648 163.082C453.943 163.082 454.241 163.165 454.235 163.451C454.232 163.634 454.02 163.728 453.842 163.753C453.664 163.778 453.456 163.794 453.359 163.947C453.257 164.108 453.342 164.315 453.377 164.503C453.422 164.743 453.363 165.022 453.164 165.161C453.086 165.216 452.993 165.241 452.899 165.241Z" fill="url(#paint48_radial)"/>
<path d="M435.664 161.364C435.414 161.465 435.226 161.715 435.319 161.935C435.376 162.067 435.518 162.16 435.67 162.214C435.823 162.267 435.987 162.288 436.148 162.321C436.541 162.402 436.933 162.574 437.134 162.873C437.263 162.486 437.757 162.28 438.217 162.186C438.457 162.137 438.741 162.078 438.826 161.882C438.89 161.735 438.801 161.564 438.659 161.464C438.517 161.365 438.332 161.322 438.15 161.292C437.668 161.211 437.194 161.222 436.706 161.247C436.366 161.265 435.975 161.235 435.664 161.364Z" fill="url(#paint49_radial)"/>
<path d="M453.531 185.649C442.807 194.999 426.454 194.002 416.991 183.304C407.582 172.617 408.625 156.405 419.382 147.062C430.094 137.667 446.458 138.71 455.886 149.369C465.365 160.049 464.278 176.295 453.531 185.649ZM494.177 164.539C494.115 162.335 493.902 160.158 493.579 158.026L482.147 156.146L478.272 145.411L485.889 136.743C483.579 132.928 480.83 129.416 477.723 126.256L467.358 131.421L457.856 125.008L458.883 113.535C454.942 111.885 450.774 110.645 446.448 109.9L441.063 120.11L429.57 120.377L423.668 110.45C419.25 111.449 415.027 112.937 411.066 114.87L412.758 126.264L403.625 133.199L392.982 128.639C390.061 131.957 387.512 135.615 385.419 139.559L393.518 147.778L390.256 158.709L378.944 161.239C378.741 163.5 378.654 165.812 378.727 168.161C378.806 170.305 379 172.407 379.293 174.479L390.729 176.392L394.569 187.14L386.901 195.787C389.219 199.605 391.955 203.155 395.064 206.323L405.449 201.191L414.932 207.632L413.858 219.108C417.925 220.816 422.214 222.102 426.673 222.858L432.028 212.625L443.52 212.309L449.442 222.222C453.856 221.204 458.072 219.694 462.031 217.753L460.305 206.365L469.408 199.39L480.062 203.922C482.984 200.58 485.525 196.917 487.602 192.977L479.455 184.79L482.678 173.826L493.997 171.279C494.179 169.057 494.256 166.805 494.177 164.539Z" fill="url(#paint50_linear)"/>
<path d="M459.006 191.833C444.84 204.187 423.235 202.804 410.788 188.738C398.306 174.645 399.71 153.223 413.875 140.854C428.056 128.497 449.675 129.899 462.124 143.969C474.577 158.032 473.187 179.475 459.006 191.833ZM464.915 141.539C451.112 125.939 427.144 124.385 411.423 138.084C395.718 151.798 394.162 175.548 408.001 191.171C421.801 206.766 445.751 208.3 461.457 194.603C477.179 180.903 478.72 157.129 464.915 141.539Z" fill="#D8D9DA"/>
<path d="M414.552 207.37L414.93 207.627L414.05 219.005L413.855 219.103C417.922 220.812 422.212 222.098 426.671 222.854L426.566 222.668L432.026 212.621L443.517 212.305L449.554 222.022L449.44 222.218C453.854 221.2 458.07 219.69 462.029 217.748L461.84 217.667L460.303 206.361L469.406 199.386L480.049 203.724L480.06 203.918C482.982 200.576 485.523 196.913 487.599 192.972L487.399 193.026L479.453 184.786L482.675 173.822L493.848 171.133L493.995 171.274C494.177 169.052 494.254 166.8 494.175 164.534C494.112 162.331 493.9 160.154 493.577 158.021L493.455 158.185L490.248 157.605C468.776 188.338 438.534 201.657 414.552 207.37Z" fill="url(#paint51_linear)"/>
<path d="M461.454 194.604C466.848 189.904 470.571 184.019 472.579 177.686C470.478 179.587 468.341 181.384 466.178 183.081C464.344 186.292 461.955 189.262 459.003 191.834C452.555 197.457 444.566 200.225 436.601 200.256C434.01 201.332 431.437 202.308 428.896 203.192C440.104 205.447 452.208 202.668 461.454 194.604Z" fill="#B1B2B3"/>
</g>
<g filter="url(#filter3_d)">
<path d="M600.582 256L595.846 242.688H577.862L573.318 256H567.174L582.79 210.688H590.342L606.534 256H600.582ZM579.654 237.568H593.99L586.694 217.024L579.654 237.568ZM612.337 249.216C614.257 250.027 615.9 250.624 617.265 251.008C618.673 251.392 620.124 251.584 621.617 251.584C623.537 251.584 625.031 251.179 626.097 250.368C627.207 249.557 627.761 248.363 627.761 246.784C627.761 245.803 627.463 245.013 626.865 244.416C626.311 243.776 625.671 243.307 624.945 243.008C624.263 242.709 622.961 242.24 621.041 241.6C620.743 241.515 619.612 241.131 617.649 240.448C615.687 239.765 614.172 238.699 613.105 237.248C612.081 235.797 611.569 234.005 611.569 231.872C611.569 229.227 612.593 227.008 614.641 225.216C616.689 223.424 619.697 222.528 623.665 222.528C625.329 222.528 626.887 222.72 628.337 223.104C629.831 223.488 631.388 224 633.009 224.64L631.409 229.376C630.001 228.821 628.679 228.373 627.441 228.032C626.247 227.691 624.988 227.52 623.665 227.52C621.66 227.52 620.145 227.925 619.121 228.736C618.097 229.504 617.585 230.528 617.585 231.808C617.585 233.003 617.991 233.899 618.801 234.496C619.612 235.051 620.913 235.648 622.705 236.288C623.175 236.416 623.601 236.565 623.985 236.736L625.521 237.312C627.313 237.909 628.743 238.507 629.809 239.104C630.919 239.701 631.857 240.619 632.625 241.856C633.393 243.051 633.777 244.651 633.777 246.656C633.777 249.813 632.647 252.267 630.385 254.016C628.167 255.723 625.265 256.576 621.681 256.576C619.591 256.576 617.649 256.363 615.857 255.936C614.065 255.467 612.273 254.848 610.481 254.08L612.337 249.216ZM642.212 249.216C644.132 250.027 645.775 250.624 647.14 251.008C648.548 251.392 649.999 251.584 651.492 251.584C653.412 251.584 654.906 251.179 655.972 250.368C657.082 249.557 657.636 248.363 657.636 246.784C657.636 245.803 657.338 245.013 656.74 244.416C656.186 243.776 655.546 243.307 654.82 243.008C654.138 242.709 652.836 242.24 650.916 241.6C650.618 241.515 649.487 241.131 647.524 240.448C645.562 239.765 644.047 238.699 642.98 237.248C641.956 235.797 641.444 234.005 641.444 231.872C641.444 229.227 642.468 227.008 644.516 225.216C646.564 223.424 649.572 222.528 653.54 222.528C655.204 222.528 656.762 222.72 658.212 223.104C659.706 223.488 661.263 224 662.884 224.64L661.284 229.376C659.876 228.821 658.554 228.373 657.316 228.032C656.122 227.691 654.863 227.52 653.54 227.52C651.535 227.52 650.02 227.925 648.996 228.736C647.972 229.504 647.46 230.528 647.46 231.808C647.46 233.003 647.866 233.899 648.676 234.496C649.487 235.051 650.788 235.648 652.58 236.288C653.05 236.416 653.476 236.565 653.86 236.736L655.396 237.312C657.188 237.909 658.618 238.507 659.684 239.104C660.794 239.701 661.732 240.619 662.5 241.856C663.268 243.051 663.652 244.651 663.652 246.656C663.652 249.813 662.522 252.267 660.26 254.016C658.042 255.723 655.14 256.576 651.556 256.576C649.466 256.576 647.524 256.363 645.732 255.936C643.94 255.467 642.148 254.848 640.356 254.08L642.212 249.216ZM672.535 210.688H678.423V216.256H672.535V210.688ZM672.535 223.104H678.423V256H672.535V223.104ZM688.962 249.216C690.882 250.027 692.525 250.624 693.89 251.008C695.298 251.392 696.749 251.584 698.242 251.584C700.162 251.584 701.656 251.179 702.722 250.368C703.832 249.557 704.386 248.363 704.386 246.784C704.386 245.803 704.088 245.013 703.49 244.416C702.936 243.776 702.296 243.307 701.57 243.008C700.888 242.709 699.586 242.24 697.666 241.6C697.368 241.515 696.237 241.131 694.274 240.448C692.312 239.765 690.797 238.699 689.73 237.248C688.706 235.797 688.194 234.005 688.194 231.872C688.194 229.227 689.218 227.008 691.266 225.216C693.314 223.424 696.322 222.528 700.29 222.528C701.954 222.528 703.512 222.72 704.962 223.104C706.456 223.488 708.013 224 709.634 224.64L708.034 229.376C706.626 228.821 705.304 228.373 704.066 228.032C702.872 227.691 701.613 227.52 700.29 227.52C698.285 227.52 696.77 227.925 695.746 228.736C694.722 229.504 694.21 230.528 694.21 231.808C694.21 233.003 694.616 233.899 695.426 234.496C696.237 235.051 697.538 235.648 699.33 236.288C699.8 236.416 700.226 236.565 700.61 236.736L702.146 237.312C703.938 237.909 705.368 238.507 706.434 239.104C707.544 239.701 708.482 240.619 709.25 241.856C710.018 243.051 710.402 244.651 710.402 246.656C710.402 249.813 709.272 252.267 707.01 254.016C704.792 255.723 701.89 256.576 698.306 256.576C696.216 256.576 694.274 256.363 692.482 255.936C690.69 255.467 688.898 254.848 687.106 254.08L688.962 249.216ZM715.637 227.712V223.104H721.909L722.933 213.504H727.413V223.104H737.461V227.712H727.413V245.888C727.413 249.685 729.013 251.584 732.213 251.584C733.493 251.584 735.072 251.285 736.949 250.688L737.973 254.912C735.627 255.893 733.344 256.384 731.125 256.384C728.267 256.384 725.92 255.531 724.085 253.824C722.293 252.117 721.397 249.579 721.397 246.208V227.712H715.637Z" fill="url(#paint52_linear)"/>
</g>
<g filter="url(#filter4_d)">
<path d="M75.6375 233.216C75.6375 225.963 77.4295 220.309 81.0135 216.256C84.5975 212.203 89.7388 210.176 96.4375 210.176C103.136 210.176 108.278 212.203 111.862 216.256C115.446 220.309 117.238 225.963 117.238 233.216C117.238 240.555 115.424 246.315 111.798 250.496C108.171 254.635 103.051 256.704 96.4375 256.704C89.7815 256.704 84.6402 254.635 81.0135 250.496C77.4295 246.357 75.6375 240.597 75.6375 233.216ZM96.4375 251.584C101.046 251.584 104.587 250.048 107.062 246.976C109.579 243.861 110.838 239.275 110.838 233.216C110.838 227.285 109.579 222.827 107.062 219.84C104.587 216.811 101.046 215.296 96.4375 215.296C91.8295 215.296 88.2668 216.789 85.7495 219.776C83.2748 222.763 82.0375 227.243 82.0375 233.216C82.0375 239.317 83.2748 243.904 85.7495 246.976C88.2668 250.048 91.8295 251.584 96.4375 251.584ZM142.838 222.528C146.336 222.528 149.003 223.531 150.838 225.536C152.715 227.541 153.654 230.443 153.654 234.24V256H147.638V234.688C147.638 232.085 147.126 230.208 146.102 229.056C145.12 227.861 143.52 227.264 141.302 227.264C139.296 227.264 137.462 227.733 135.798 228.672C134.134 229.568 132.768 230.827 131.702 232.448V256H125.686V223.104H130.614L131.318 227.712C134.262 224.256 138.102 222.528 142.838 222.528ZM188.451 256L177.507 237.376H177.378H170.147V256H164.003V210.688H177.378C182.541 210.688 186.424 211.861 189.027 214.208C191.629 216.512 192.931 219.776 192.931 224C192.931 227.2 192.141 229.888 190.562 232.064C189.027 234.197 186.744 235.691 183.715 236.544L195.171 256H188.451ZM170.147 232.256H177.378C180.323 232.256 182.584 231.552 184.163 230.144C185.741 228.736 186.531 226.688 186.531 224C186.531 221.312 185.741 219.285 184.163 217.92C182.627 216.512 180.365 215.808 177.378 215.808H170.147V232.256ZM199.632 239.488C199.632 234.155 200.976 229.995 203.664 227.008C206.394 224.021 210.256 222.528 215.248 222.528C220.24 222.528 224.08 224.021 226.768 227.008C229.498 229.995 230.864 234.155 230.864 239.488C230.864 244.821 229.498 249.003 226.768 252.032C224.08 255.019 220.24 256.512 215.248 256.512C210.256 256.512 206.394 255.019 203.664 252.032C200.976 249.003 199.632 244.821 199.632 239.488ZM205.776 239.488C205.776 243.499 206.586 246.549 208.208 248.64C209.872 250.731 212.218 251.776 215.248 251.776C218.277 251.776 220.602 250.731 222.224 248.64C223.888 246.549 224.72 243.499 224.72 239.488C224.72 235.477 223.888 232.448 222.224 230.4C220.602 228.309 218.277 227.264 215.248 227.264C212.218 227.264 209.872 228.309 208.208 230.4C206.586 232.448 205.776 235.477 205.776 239.488ZM236.629 247.104C236.629 243.605 238.037 240.896 240.853 238.976C243.669 237.056 247.658 236.096 252.821 236.096H257.685V234.816C257.685 232.085 257.109 230.144 255.957 228.992C254.847 227.84 252.927 227.264 250.197 227.264C248.447 227.264 246.89 227.435 245.525 227.776C244.159 228.075 242.41 228.693 240.277 229.632L238.485 225.472C242.495 223.509 246.442 222.528 250.325 222.528C254.975 222.528 258.367 223.531 260.501 225.536C262.634 227.499 263.701 230.635 263.701 234.944V256H259.029C258.986 255.829 258.901 255.424 258.773 254.784C258.645 254.101 258.453 253.227 258.197 252.16C255.125 255.232 251.541 256.768 247.445 256.768C244.159 256.768 241.535 255.893 239.573 254.144C237.61 252.395 236.629 250.048 236.629 247.104ZM242.645 246.976C242.645 248.597 243.157 249.856 244.181 250.752C245.205 251.605 246.677 252.032 248.597 252.032C250.303 252.032 251.967 251.648 253.589 250.88C255.21 250.069 256.575 248.981 257.685 247.616V240.576H253.205C249.706 240.576 247.061 241.109 245.269 242.176C243.519 243.243 242.645 244.843 242.645 246.976ZM301.457 207.424V255.936H296.593L295.761 251.904C293.329 254.976 290.086 256.512 286.033 256.512C281.468 256.512 277.905 255.104 275.345 252.288C272.828 249.429 271.569 245.355 271.569 240.064C271.569 234.56 273.062 230.272 276.049 227.2C279.078 224.085 283.217 222.528 288.465 222.528C290.726 222.528 293.052 222.827 295.441 223.424V207.424H301.457ZM286.417 251.776C288.636 251.776 290.534 251.179 292.113 249.984C293.734 248.747 294.844 247.04 295.441 244.864V228.224C293.265 227.584 290.961 227.264 288.529 227.264C285.158 227.264 282.513 228.395 280.593 230.656C278.673 232.875 277.713 236.011 277.713 240.064C277.713 243.819 278.46 246.72 279.953 248.768C281.489 250.773 283.644 251.776 286.417 251.776Z" fill="url(#paint53_linear)"/>
</g>
<defs>
<filter id="filter0_d" x="246.643" y="0.00195312" width="196.508" height="285.367" filterUnits="userSpaceOnUse" color-interpolation-filters="sRGB">
<feFlood flood-opacity="0" result="BackgroundImageFix"/>
<feColorMatrix in="SourceAlpha" type="matrix" values="0 0 0 0 0 0 0 0 0 0 0 0 0 0 0 0 0 0 127 0" result="hardAlpha"/>
<feOffset dx="7" dy="7"/>
<feGaussianBlur stdDeviation="5"/>
<feComposite in2="hardAlpha" operator="out"/>
<feColorMatrix type="matrix" values="0 0 0 0 0 0 0 0 0 0 0 0 0 0 0 0 0 0 0.25 0"/>
<feBlend mode="normal" in2="BackgroundImageFix" result="effect1_dropShadow"/>
<feBlend mode="normal" in="SourceGraphic" in2="effect1_dropShadow" result="shape"/>
</filter>
<filter id="filter1_d" x="444.881" y="0.00195312" width="196.508" height="285.367" filterUnits="userSpaceOnUse" color-interpolation-filters="sRGB">
<feFlood flood-opacity="0" result="BackgroundImageFix"/>
<feColorMatrix in="SourceAlpha" type="matrix" values="0 0 0 0 0 0 0 0 0 0 0 0 0 0 0 0 0 0 127 0" result="hardAlpha"/>
<feOffset dx="7" dy="7"/>
<feGaussianBlur stdDeviation="5"/>
<feComposite in2="hardAlpha" operator="out"/>
<feColorMatrix type="matrix" values="0 0 0 0 0 0 0 0 0 0 0 0 0 0 0 0 0 0 0.25 0"/>
<feBlend mode="normal" in2="BackgroundImageFix" result="effect1_dropShadow"/>
<feBlend mode="normal" in="SourceGraphic" in2="effect1_dropShadow" result="shape"/>
</filter>
<filter id="filter2_d" x="373.701" y="109.9" width="155.508" height="162.957" filterUnits="userSpaceOnUse" color-interpolation-filters="sRGB">
<feFlood flood-opacity="0" result="BackgroundImageFix"/>
<feColorMatrix in="SourceAlpha" type="matrix" values="0 0 0 0 0 0 0 0 0 0 0 0 0 0 0 0 0 0 127 0" result="hardAlpha"/>
<feOffset dx="15" dy="30"/>
<feGaussianBlur stdDeviation="10"/>
<feColorMatrix type="matrix" values="0 0 0 0 0 0 0 0 0 0 0 0 0 0 0 0 0 0 0.5 0"/>
<feBlend mode="normal" in2="BackgroundImageFix" result="effect1_dropShadow"/>
<feBlend mode="normal" in="SourceGraphic" in2="effect1_dropShadow" result="shape"/>
</filter>
<filter id="filter3_d" x="563.174" y="210.688" width="178.799" height="53.8887" filterUnits="userSpaceOnUse" color-interpolation-filters="sRGB">
<feFlood flood-opacity="0" result="BackgroundImageFix"/>
<feColorMatrix in="SourceAlpha" type="matrix" values="0 0 0 0 0 0 0 0 0 0 0 0 0 0 0 0 0 0 127 0" result="hardAlpha"/>
<feOffset dy="4"/>
<feGaussianBlur stdDeviation="2"/>
<feComposite in2="hardAlpha" operator="out"/>
<feColorMatrix type="matrix" values="0 0 0 0 0 0 0 0 0 0 0 0 0 0 0 0 0 0 0.25 0"/>
<feBlend mode="normal" in2="BackgroundImageFix" result="effect1_dropShadow"/>
<feBlend mode="normal" in="SourceGraphic" in2="effect1_dropShadow" result="shape"/>
</filter>
<filter id="filter4_d" x="71.6367" y="207.424" width="233.82" height="57.3438" filterUnits="userSpaceOnUse" color-interpolation-filters="sRGB">
<feFlood flood-opacity="0" result="BackgroundImageFix"/>
<feColorMatrix in="SourceAlpha" type="matrix" values="0 0 0 0 0 0 0 0 0 0 0 0 0 0 0 0 0 0 127 0" result="hardAlpha"/>
<feOffset dy="4"/>
<feGaussianBlur stdDeviation="2"/>
<feComposite in2="hardAlpha" operator="out"/>
<feColorMatrix type="matrix" values="0 0 0 0 0 0 0 0 0 0 0 0 0 0 0 0 0 0 0.25 0"/>
<feBlend mode="normal" in2="BackgroundImageFix" result="effect1_dropShadow"/>
<feBlend mode="normal" in="SourceGraphic" in2="effect1_dropShadow" result="shape"/>
</filter>
<linearGradient id="paint0_linear" x1="357.299" y1="302.576" x2="238.001" y2="7.87967" gradientUnits="userSpaceOnUse">
<stop offset="0.32643" stop-color="#FFA500"/>
<stop offset="0.651081" stop-color="#CC8400"/>
<stop offset="1"/>
</linearGradient>
<linearGradient id="paint1_linear" x1="516.732" y1="302.576" x2="636.03" y2="7.87969" gradientUnits="userSpaceOnUse">
<stop offset="0.32643" stop-color="#FFA500"/>
<stop offset="0.651081" stop-color="#CC8400"/>
<stop offset="1"/>
</linearGradient>
<radialGradient id="paint2_radial" cx="0" cy="0" r="1" gradientUnits="userSpaceOnUse" gradientTransform="translate(417.758 157.597) rotate(90) scale(1.31623 2.26572)">
<stop stop-color="#FFA500"/>
<stop offset="0.567708" stop-color="#B97905"/>
<stop offset="1" stop-color="#120607"/>
</radialGradient>
<radialGradient id="paint3_radial" cx="0" cy="0" r="1" gradientUnits="userSpaceOnUse" gradientTransform="translate(420.118 158.759) rotate(90) scale(1.15945 1.19203)">
<stop stop-color="#FFA500"/>
<stop offset="0.567708" stop-color="#B97905"/>
<stop offset="1" stop-color="#120607"/>
</radialGradient>
<radialGradient id="paint4_radial" cx="0" cy="0" r="1" gradientUnits="userSpaceOnUse" gradientTransform="translate(455.181 157.456) rotate(90) scale(1.32934 2.26704)">
<stop stop-color="#FFA500"/>
<stop offset="0.567708" stop-color="#B97905"/>
<stop offset="1" stop-color="#120607"/>
</radialGradient>
<radialGradient id="paint5_radial" cx="0" cy="0" r="1" gradientUnits="userSpaceOnUse" gradientTransform="translate(452.815 158.593) rotate(90) scale(1.15331 1.19624)">
<stop stop-color="#FFA500"/>
<stop offset="0.567708" stop-color="#B97905"/>
<stop offset="1" stop-color="#120607"/>
</radialGradient>
<radialGradient id="paint6_radial" cx="0" cy="0" r="1" gradientUnits="userSpaceOnUse" gradientTransform="translate(436.514 177.253) rotate(90) scale(0.432727 20.5916)">
<stop stop-color="#FFA500"/>
<stop offset="0.567708" stop-color="#B97905"/>
<stop offset="1" stop-color="#120607"/>
</radialGradient>
<radialGradient id="paint7_radial" cx="0" cy="0" r="1" gradientUnits="userSpaceOnUse" gradientTransform="translate(452.573 174.517) rotate(90) scale(2.49184 2.38393)">
<stop stop-color="#FFA500"/>
<stop offset="0.567708" stop-color="#B97905"/>
<stop offset="1" stop-color="#120607"/>
</radialGradient>
<radialGradient id="paint8_radial" cx="0" cy="0" r="1" gradientUnits="userSpaceOnUse" gradientTransform="translate(452.573 174.517) rotate(90) scale(2.49184 2.38393)">
<stop stop-color="#FFA500"/>
<stop offset="0.567708" stop-color="#B97905"/>
<stop offset="1" stop-color="#120607"/>
</radialGradient>
<radialGradient id="paint9_radial" cx="0" cy="0" r="1" gradientUnits="userSpaceOnUse" gradientTransform="translate(451.1 174.087) rotate(90) scale(1.37437 0.370025)">
<stop stop-color="#FFA500"/>
<stop offset="0.567708" stop-color="#B97905"/>
<stop offset="1" stop-color="#120607"/>
</radialGradient>
<radialGradient id="paint10_radial" cx="0" cy="0" r="1" gradientUnits="userSpaceOnUse" gradientTransform="translate(421.31 174.517) rotate(90) scale(2.49184 2.38381)">
<stop stop-color="#FFA500"/>
<stop offset="0.567708" stop-color="#B97905"/>
<stop offset="1" stop-color="#120607"/>
</radialGradient>
<radialGradient id="paint11_radial" cx="0" cy="0" r="1" gradientUnits="userSpaceOnUse" gradientTransform="translate(421.31 174.517) rotate(90) scale(2.49184 2.38381)">
<stop stop-color="#FFA500"/>
<stop offset="0.567708" stop-color="#B97905"/>
<stop offset="1" stop-color="#120607"/>
</radialGradient>
<radialGradient id="paint12_radial" cx="0" cy="0" r="1" gradientUnits="userSpaceOnUse" gradientTransform="translate(436.497 154.359) rotate(90) scale(5.2941 16.1126)">
<stop stop-color="#FFA500"/>
<stop offset="0.567708" stop-color="#B97905"/>
<stop offset="1" stop-color="#120607"/>
</radialGradient>
<radialGradient id="paint13_radial" cx="0" cy="0" r="1" gradientUnits="userSpaceOnUse" gradientTransform="translate(436.499 165.967) rotate(90) scale(6.31808 20.0363)">
<stop stop-color="#FFA500"/>
<stop offset="0.567708" stop-color="#B97905"/>
<stop offset="1" stop-color="#120607"/>
</radialGradient>
<radialGradient id="paint14_radial" cx="0" cy="0" r="1" gradientUnits="userSpaceOnUse" gradientTransform="translate(436.54 164.498) rotate(90) scale(1.56213 17.9955)">
<stop stop-color="#FFA500"/>
<stop offset="0.567708" stop-color="#B97905"/>
<stop offset="1" stop-color="#120607"/>
</radialGradient>
<radialGradient id="paint15_radial" cx="0" cy="0" r="1" gradientUnits="userSpaceOnUse" gradientTransform="translate(436.538 164.489) rotate(90) scale(1.70359 18.1355)">
<stop stop-color="#FFA500"/>
<stop offset="0.567708" stop-color="#B97905"/>
<stop offset="1" stop-color="#120607"/>
</radialGradient>
<radialGradient id="paint16_radial" cx="0" cy="0" r="1" gradientUnits="userSpaceOnUse" gradientTransform="translate(436.624 154.463) rotate(90) scale(4.58643 13.9581)">
<stop stop-color="#FFA500"/>
<stop offset="0.567708" stop-color="#B97905"/>
<stop offset="1" stop-color="#120607"/>
</radialGradient>
<radialGradient id="paint17_radial" cx="0" cy="0" r="1" gradientUnits="userSpaceOnUse" gradientTransform="translate(436.624 154.463) rotate(90) scale(4.58643 13.9581)">
<stop stop-color="#FFA500"/>
<stop offset="0.567708" stop-color="#B97905"/>
<stop offset="1" stop-color="#120607"/>
</radialGradient>
<radialGradient id="paint18_radial" cx="0" cy="0" r="1" gradientUnits="userSpaceOnUse" gradientTransform="translate(436.435 160.596) rotate(90) scale(1.35211 17.7183)">
<stop stop-color="#FFA500"/>
<stop offset="0.567708" stop-color="#B97905"/>
<stop offset="1" stop-color="#120607"/>
</radialGradient>
<radialGradient id="paint19_radial" cx="0" cy="0" r="1" gradientUnits="userSpaceOnUse" gradientTransform="translate(436.498 170.891) rotate(90) scale(1.39869 19.9862)">
<stop stop-color="#FFA500"/>
<stop offset="0.567708" stop-color="#B97905"/>
<stop offset="1" stop-color="#120607"/>
</radialGradient>
<radialGradient id="paint20_radial" cx="0" cy="0" r="1" gradientUnits="userSpaceOnUse" gradientTransform="translate(436.514 168.551) rotate(90) scale(1.94771 20.5916)">
<stop stop-color="#FFA500"/>
<stop offset="0.567708" stop-color="#B97905"/>
<stop offset="1" stop-color="#120607"/>
</radialGradient>
<radialGradient id="paint21_radial" cx="0" cy="0" r="1" gradientUnits="userSpaceOnUse" gradientTransform="translate(435.389 167.155) rotate(90) scale(0.314801 18.9263)">
<stop stop-color="#FFA500"/>
<stop offset="0.567708" stop-color="#B97905"/>
<stop offset="1" stop-color="#120607"/>
</radialGradient>
<radialGradient id="paint22_radial" cx="0" cy="0" r="1" gradientUnits="userSpaceOnUse" gradientTransform="translate(419.847 174.087) rotate(90) scale(1.37437 0.370038)">
<stop stop-color="#FFA500"/>
<stop offset="0.567708" stop-color="#B97905"/>
<stop offset="1" stop-color="#120607"/>
</radialGradient>
<radialGradient id="paint23_radial" cx="0" cy="0" r="1" gradientUnits="userSpaceOnUse" gradientTransform="translate(424.948 158.942) rotate(90) scale(0.0575214 1.24909)">
<stop stop-color="#FFA500"/>
<stop offset="0.567708" stop-color="#B97905"/>
<stop offset="1" stop-color="#120607"/>
</radialGradient>
<radialGradient id="paint24_radial" cx="0" cy="0" r="1" gradientUnits="userSpaceOnUse" gradientTransform="translate(428.655 154.874) rotate(90) scale(4.13214 4.95577)">
<stop stop-color="#FFA500"/>
<stop offset="0.567708" stop-color="#B97905"/>
<stop offset="1" stop-color="#120607"/>
</radialGradient>
<radialGradient id="paint25_radial" cx="0" cy="0" r="1" gradientUnits="userSpaceOnUse" gradientTransform="translate(433.241 150.351) rotate(90) scale(0.456287 1.50891)">
<stop stop-color="#FFA500"/>
<stop offset="0.567708" stop-color="#B97905"/>
<stop offset="1" stop-color="#120607"/>
</radialGradient>
<radialGradient id="paint26_radial" cx="0" cy="0" r="1" gradientUnits="userSpaceOnUse" gradientTransform="translate(437.564 154.325) rotate(90) scale(4.32463 5.67717)">
<stop stop-color="#FFA500"/>
<stop offset="0.567708" stop-color="#B97905"/>
<stop offset="1" stop-color="#120607"/>
</radialGradient>
<radialGradient id="paint27_radial" cx="0" cy="0" r="1" gradientUnits="userSpaceOnUse" gradientTransform="translate(437.129 154.709) rotate(90) scale(3.94191 5.24183)">
<stop stop-color="#FFA500"/>
<stop offset="0.567708" stop-color="#B97905"/>
<stop offset="1" stop-color="#120607"/>
</radialGradient>
<radialGradient id="paint28_radial" cx="0" cy="0" r="1" gradientUnits="userSpaceOnUse" gradientTransform="translate(441.971 150.431) rotate(90) scale(0.420947 1.24686)">
<stop stop-color="#FFA500"/>
<stop offset="0.567708" stop-color="#B97905"/>
<stop offset="1" stop-color="#120607"/>
</radialGradient>
<radialGradient id="paint29_radial" cx="0" cy="0" r="1" gradientUnits="userSpaceOnUse" gradientTransform="translate(447.21 156.785) rotate(90) scale(2.0511 2.19628)">
<stop stop-color="#FFA500"/>
<stop offset="0.567708" stop-color="#B97905"/>
<stop offset="1" stop-color="#120607"/>
</radialGradient>
<radialGradient id="paint30_radial" cx="0" cy="0" r="1" gradientUnits="userSpaceOnUse" gradientTransform="translate(447.116 156.983) rotate(90) scale(1.85986 2.10183)">
<stop stop-color="#FFA500"/>
<stop offset="0.567708" stop-color="#B97905"/>
<stop offset="1" stop-color="#120607"/>
</radialGradient>
<radialGradient id="paint31_radial" cx="0" cy="0" r="1" gradientUnits="userSpaceOnUse" gradientTransform="translate(449.188 155.566) rotate(90) scale(0.831241 0.37011)">
<stop stop-color="#FFA500"/>
<stop offset="0.567708" stop-color="#B97905"/>
<stop offset="1" stop-color="#120607"/>
</radialGradient>
<radialGradient id="paint32_radial" cx="0" cy="0" r="1" gradientUnits="userSpaceOnUse" gradientTransform="translate(436.6 168.508) rotate(90) scale(1.27399 5.88859)">
<stop stop-color="#FFA500"/>
<stop offset="0.567708" stop-color="#B97905"/>
<stop offset="1" stop-color="#120607"/>
</radialGradient>
<radialGradient id="paint33_radial" cx="0" cy="0" r="1" gradientUnits="userSpaceOnUse" gradientTransform="translate(419.78 164.326) rotate(90) scale(2.04709 2.01667)">
<stop stop-color="#FFA500"/>
<stop offset="0.567708" stop-color="#B97905"/>
<stop offset="1" stop-color="#120607"/>
</radialGradient>
<radialGradient id="paint34_radial" cx="0" cy="0" r="1" gradientUnits="userSpaceOnUse" gradientTransform="translate(419.772 164.351) rotate(90) scale(1.74745 1.72132)">
<stop stop-color="#FFA500"/>
<stop offset="0.567708" stop-color="#B97905"/>
<stop offset="1" stop-color="#120607"/>
</radialGradient>
<radialGradient id="paint35_radial" cx="0" cy="0" r="1" gradientUnits="userSpaceOnUse" gradientTransform="translate(419.965 164.512) rotate(90) scale(1.58604 1.52748)">
<stop stop-color="#FFA500"/>
<stop offset="0.567708" stop-color="#B97905"/>
<stop offset="1" stop-color="#120607"/>
</radialGradient>
<radialGradient id="paint36_radial" cx="0" cy="0" r="1" gradientUnits="userSpaceOnUse" gradientTransform="translate(419.404 164.005) rotate(90) scale(1.0795 0.993782)">
<stop stop-color="#FFA500"/>
<stop offset="0.567708" stop-color="#B97905"/>
<stop offset="1" stop-color="#120607"/>
</radialGradient>
<radialGradient id="paint37_radial" cx="0" cy="0" r="1" gradientUnits="userSpaceOnUse" gradientTransform="translate(424.048 164.278) rotate(90) scale(2.04709 2.01667)">
<stop stop-color="#FFA500"/>
<stop offset="0.567708" stop-color="#B97905"/>
<stop offset="1" stop-color="#120607"/>
</radialGradient>
<radialGradient id="paint38_radial" cx="0" cy="0" r="1" gradientUnits="userSpaceOnUse" gradientTransform="translate(424.049 164.302) rotate(90) scale(1.74745 1.72132)">
<stop stop-color="#FFA500"/>
<stop offset="0.567708" stop-color="#B97905"/>
<stop offset="1" stop-color="#120607"/>
</radialGradient>
<radialGradient id="paint39_radial" cx="0" cy="0" r="1" gradientUnits="userSpaceOnUse" gradientTransform="translate(424.241 164.459) rotate(90) scale(1.58641 1.52773)">
<stop stop-color="#FFA500"/>
<stop offset="0.567708" stop-color="#B97905"/>
<stop offset="1" stop-color="#120607"/>
</radialGradient>
<radialGradient id="paint40_radial" cx="0" cy="0" r="1" gradientUnits="userSpaceOnUse" gradientTransform="translate(423.677 163.953) rotate(90) scale(1.07987 0.993786)">
<stop stop-color="#FFA500"/>
<stop offset="0.567708" stop-color="#B97905"/>
<stop offset="1" stop-color="#120607"/>
</radialGradient>
<radialGradient id="paint41_radial" cx="0" cy="0" r="1" gradientUnits="userSpaceOnUse" gradientTransform="translate(449.296 164.469) rotate(90) scale(2.04709 2.01667)">
<stop stop-color="#FFA500"/>
<stop offset="0.567708" stop-color="#B97905"/>
<stop offset="1" stop-color="#120607"/>
</radialGradient>
<radialGradient id="paint42_radial" cx="0" cy="0" r="1" gradientUnits="userSpaceOnUse" gradientTransform="translate(449.297 164.492) rotate(90) scale(1.74745 1.72132)">
<stop stop-color="#FFA500"/>
<stop offset="0.567708" stop-color="#B97905"/>
<stop offset="1" stop-color="#120607"/>
</radialGradient>
<radialGradient id="paint43_radial" cx="0" cy="0" r="1" gradientUnits="userSpaceOnUse" gradientTransform="translate(449.49 164.651) rotate(90) scale(1.58616 1.52736)">
<stop stop-color="#FFA500"/>
<stop offset="0.567708" stop-color="#B97905"/>
<stop offset="1" stop-color="#120607"/>
</radialGradient>
<radialGradient id="paint44_radial" cx="0" cy="0" r="1" gradientUnits="userSpaceOnUse" gradientTransform="translate(448.929 164.144) rotate(90) scale(1.07962 0.993716)">
<stop stop-color="#FFA500"/>
<stop offset="0.567708" stop-color="#B97905"/>
<stop offset="1" stop-color="#120607"/>
</radialGradient>
<radialGradient id="paint45_radial" cx="0" cy="0" r="1" gradientUnits="userSpaceOnUse" gradientTransform="translate(453.608 164.487) rotate(90) scale(2.04709 2.01667)">
<stop stop-color="#FFA500"/>
<stop offset="0.567708" stop-color="#B97905"/>
<stop offset="1" stop-color="#120607"/>
</radialGradient>
<radialGradient id="paint46_radial" cx="0" cy="0" r="1" gradientUnits="userSpaceOnUse" gradientTransform="translate(453.61 164.505) rotate(90) scale(1.74745 1.72132)">
<stop stop-color="#FFA500"/>
<stop offset="0.567708" stop-color="#B97905"/>
<stop offset="1" stop-color="#120607"/>
</radialGradient>
<radialGradient id="paint47_radial" cx="0" cy="0" r="1" gradientUnits="userSpaceOnUse" gradientTransform="translate(453.803 164.668) rotate(90) scale(1.58604 1.52736)">
<stop stop-color="#FFA500"/>
<stop offset="0.567708" stop-color="#B97905"/>
<stop offset="1" stop-color="#120607"/>
</radialGradient>
<radialGradient id="paint48_radial" cx="0" cy="0" r="1" gradientUnits="userSpaceOnUse" gradientTransform="translate(453.242 164.162) rotate(90) scale(1.0795 0.993678)">
<stop stop-color="#FFA500"/>
<stop offset="0.567708" stop-color="#B97905"/>
<stop offset="1" stop-color="#120607"/>
</radialGradient>
<radialGradient id="paint49_radial" cx="0" cy="0" r="1" gradientUnits="userSpaceOnUse" gradientTransform="translate(437.071 162.051) rotate(90) scale(0.822098 1.77611)">
<stop stop-color="#FFA500"/>
<stop offset="0.567708" stop-color="#B97905"/>
<stop offset="1" stop-color="#120607"/>
</radialGradient>
<linearGradient id="paint50_linear" x1="418.171" y1="102.805" x2="468.36" y2="219.414" gradientUnits="userSpaceOnUse">
<stop stop-color="#FFA500"/>
<stop offset="0.484375" stop-color="#BE7C02"/>
<stop offset="1"/>
</linearGradient>
<linearGradient id="paint51_linear" x1="458.494" y1="157.605" x2="454.03" y2="231.076" gradientUnits="userSpaceOnUse">
<stop stop-color="#FFA601"/>
<stop offset="1" stop-opacity="0"/>
</linearGradient>
<linearGradient id="paint52_linear" x1="593.623" y1="164.429" x2="721.38" y2="263.495" gradientUnits="userSpaceOnUse">
<stop stop-color="#EC9901"/>
<stop offset="1"/>
</linearGradient>
<linearGradient id="paint53_linear" x1="126.99" y1="195.286" x2="195.845" y2="295.727" gradientUnits="userSpaceOnUse">
<stop stop-color="#EC9901"/>
<stop offset="1"/>
</linearGradient>
</defs>
</svg>
