<svg width="444" height="150" viewBox="0 0 444 150" fill="none" xmlns="http://www.w3.org/2000/svg">
<g filter="url(#filter0_d)">
<path d="M201.792 75.7439C201.792 63.979 207.735 53.6026 216.783 47.4518C212.961 47.1795 209.107 47.8133 205.29 48.0427C201.534 48.2686 197.732 47.7692 194.104 46.7899C186.598 44.7644 180.082 40.1328 174.392 34.8354C162.877 24.1146 155.73 12.7325 153.775 3.00071C152.422 18.2913 157.572 29.8438 165.789 40.1295C174.007 50.4153 184.319 56.6737 198.083 63.0266C177.172 58.7914 158.642 43.4383 151 29.9283C153.481 42.1149 160.44 52.0174 168.701 60.2471C176.962 68.4768 184.451 74.2764 196.56 80.9442C181.528 75.0249 167.815 65.7792 156.691 54.0623C159.253 64.8747 167.213 73.6888 176.219 80.1975C185.225 86.7059 195.418 91.3531 204.933 97.0923C214.447 102.831 223.567 109.995 228.716 119.842C227.616 115.365 225.479 111.237 222.952 107.359C210.533 102.236 201.792 90.0118 201.792 75.7439Z" fill="url(#paint0_linear)"/>
</g>
<g filter="url(#filter1_d)">
<path d="M265.208 75.7439C265.208 63.979 259.265 53.6026 250.217 47.4518C254.039 47.1795 257.893 47.8133 261.71 48.0427C265.466 48.2686 269.268 47.7692 272.896 46.7899C280.402 44.7644 286.918 40.1328 292.608 34.8354C304.123 24.1146 311.27 12.7325 313.225 3.00071C314.578 18.2913 309.428 29.8438 301.211 40.1295C292.993 50.4153 282.681 56.6737 268.917 63.0266C289.828 58.7914 308.358 43.4383 316 29.9283C313.519 42.1149 306.56 52.0174 298.299 60.2471C290.038 68.4768 282.549 74.2764 270.44 80.9442C285.472 75.0249 299.185 65.7792 310.309 54.0623C307.747 64.8747 299.787 73.6888 290.781 80.1975C281.775 86.7059 271.582 91.3531 262.067 97.0923C252.553 102.831 243.433 109.995 238.284 119.842C239.384 115.365 241.521 111.237 244.048 107.359C256.467 102.236 265.208 90.0118 265.208 75.7439Z" fill="url(#paint1_linear)"/>
</g>
<g filter="url(#filter2_d)">
<ellipse cx="233.576" cy="75.1216" rx="11.752" ry="11.4927" fill="white"/>
<path d="M225.501 71.6493H224.542C224.255 71.6493 224.023 71.4146 224.023 71.1247V71.0145C224.023 70.725 224.255 70.4902 224.542 70.4902H225.501C225.787 70.4902 226.019 70.725 226.019 71.0145V71.1247C226.019 71.4146 225.787 71.6493 225.501 71.6493Z" fill="url(#paint2_radial)"/>
<path d="M225.535 71.2825L226.184 72.0913L226.585 71.6031L225.747 71.0703L225.535 71.2825Z" fill="url(#paint3_radial)"/>
<path d="M241.012 71.5811L241.971 71.5925C242.257 71.5958 242.492 71.3638 242.495 71.0742L242.496 70.9641C242.5 70.6743 242.271 70.4369 241.985 70.4335L241.026 70.4219C240.74 70.4186 240.505 70.6508 240.501 70.9404L240.5 71.0505C240.497 71.3401 240.726 71.5777 241.012 71.5811Z" fill="url(#paint4_radial)"/>
<path d="M240.983 71.2144L240.325 72.0156L239.93 71.5226L240.774 71L240.983 71.2144Z" fill="url(#paint5_radial)"/>
<path d="M242.215 79.9143H224.344C224.272 79.9143 224.213 79.8547 224.213 79.7813V79.6663C224.213 79.5928 224.272 79.5332 224.344 79.5332H242.215C242.287 79.5332 242.346 79.5928 242.346 79.6663V79.7813C242.346 79.8547 242.287 79.9143 242.215 79.9143Z" fill="url(#paint6_radial)"/>
<path d="M241.211 77.4219H239.489C239.385 77.4219 239.301 77.5075 239.301 77.6129V79.4252C239.301 79.5305 239.385 79.6162 239.489 79.6162H241.211C241.315 79.6162 241.4 79.5305 241.4 79.4252V77.6129C241.4 77.5075 241.315 77.4219 241.211 77.4219Z" fill="url(#paint7_radial)"/>
<path d="M241.194 77.4219H241.121C241.132 77.6591 241.15 77.8973 241.111 78.1323C241.048 78.5095 240.829 78.8719 240.482 79.113C240.156 79.3399 239.715 79.45 239.301 79.3884V79.4409C239.301 79.5378 239.393 79.6162 239.506 79.6162H241.194C241.308 79.6162 241.4 79.5378 241.4 79.4409V77.597C241.4 77.5004 241.308 77.4219 241.194 77.4219Z" fill="url(#paint8_radial)"/>
<path d="M239.711 78.9349C239.661 78.9349 239.614 78.9041 239.589 78.8659C239.561 78.8221 239.557 78.7704 239.554 78.7205C239.537 78.4458 239.538 78.1709 239.54 77.8961C239.541 77.8246 239.561 77.7458 239.658 77.7274C239.668 77.7257 239.678 77.7246 239.689 77.7246C239.748 77.7246 239.812 77.7534 239.838 77.7972C239.866 77.8424 239.866 77.8961 239.864 77.9472C239.858 78.2119 239.851 78.4764 239.844 78.7411C239.843 78.7795 239.842 78.8188 239.826 78.8549C239.811 78.8911 239.777 78.9241 239.733 78.9326C239.726 78.934 239.719 78.9349 239.711 78.9349Z" fill="url(#paint9_radial)"/>
<path d="M227.446 77.4219H225.724C225.62 77.4219 225.535 77.5075 225.535 77.6129V79.4252C225.535 79.5305 225.62 79.6162 225.724 79.6162H227.446C227.55 79.6162 227.634 79.5305 227.634 79.4252V77.6129C227.634 77.5075 227.55 77.4219 227.446 77.4219Z" fill="url(#paint10_radial)"/>
<path d="M227.429 77.4219H227.356C227.367 77.6591 227.384 77.8973 227.345 78.1323C227.282 78.5095 227.064 78.8719 226.717 79.113C226.391 79.3399 225.949 79.45 225.535 79.3884V79.4409C225.535 79.5378 225.627 79.6162 225.741 79.6162H227.429C227.542 79.6162 227.634 79.5378 227.634 79.4409V77.597C227.634 77.5004 227.542 77.4219 227.429 77.4219Z" fill="url(#paint11_radial)"/>
<path d="M238.72 68.2371C238.72 68.2371 238.513 67.7037 236.663 67.4661C235.068 67.2613 231.477 67.2613 229.881 67.4661C228.031 67.7037 227.824 68.2371 227.824 68.2371L226.178 71.9745H240.366L238.72 68.2371Z" fill="url(#paint12_radial)"/>
<path d="M242.054 74.481C241.932 72.6207 240.367 71.9727 240.367 71.9727H226.179C226.179 71.9727 224.614 72.6207 224.492 74.481C224.309 77.2804 224.804 77.5363 224.804 77.5363H241.743C241.743 77.5363 242.238 77.2804 242.054 74.481Z" fill="url(#paint13_radial)"/>
<path d="M241.188 73.5466C241.039 73.3777 225.542 73.3777 225.393 73.5466C225.238 73.7209 225.836 74.7955 225.836 74.7955H240.745C240.745 74.7955 241.343 73.7209 241.188 73.5466Z" fill="url(#paint14_radial)"/>
<path d="M225.871 74.7293H240.708C240.751 74.6502 240.867 74.4336 240.968 74.2061C241.172 73.7525 241.157 73.6236 241.146 73.5925C240.867 73.5259 237.595 73.4778 233.29 73.4778C228.984 73.4778 225.712 73.5259 225.433 73.5925C225.422 73.6236 225.408 73.7525 225.611 74.2061C225.713 74.4336 225.828 74.6502 225.871 74.7293ZM240.78 74.8537H225.799L225.782 74.822C225.78 74.8195 225.629 74.5477 225.5 74.2581C225.254 73.7103 225.289 73.5657 225.346 73.501C225.376 73.4671 225.417 73.4207 227.901 73.3852C229.329 73.3648 231.243 73.3535 233.29 73.3535C235.336 73.3535 237.25 73.3648 238.678 73.3852C241.162 73.4207 241.203 73.4671 241.233 73.501C241.291 73.5657 241.325 73.7103 241.08 74.2581C240.95 74.5477 240.799 74.8195 240.798 74.822L240.78 74.8537Z" fill="url(#paint15_radial)"/>
<path d="M238.422 68.3827C238.422 68.3827 238.364 68.1016 237.738 67.9236C237.287 67.7951 235.184 67.6699 233.327 67.6699C231.574 67.6699 229.368 67.7951 228.916 67.9236C228.291 68.1016 228.233 68.3827 228.233 68.3827L227.182 71.7087C227.182 71.7087 230.932 71.5228 233.27 71.4731C236.173 71.411 239.473 71.7087 239.473 71.7087L238.422 68.3827Z" fill="url(#paint16_radial)"/>
<path d="M228.342 68.7393C228.342 68.7393 228.399 68.4581 229.011 68.2802C229.453 68.1518 231.612 68.0267 233.327 68.0267C235.144 68.0267 237.202 68.1518 237.644 68.2802C238.256 68.4581 238.313 68.7393 238.313 68.7393L239.224 71.6877C239.384 71.7008 239.473 71.7087 239.473 71.7087L238.422 68.3827C238.422 68.3827 238.364 68.1016 237.738 67.9236C237.287 67.7951 235.184 67.6699 233.327 67.6699C231.574 67.6699 229.368 67.7951 228.916 67.9236C228.291 68.1016 228.233 68.3827 228.233 68.3827L227.182 71.7087C227.182 71.7087 227.27 71.7044 227.427 71.6968L228.342 68.7393Z" fill="url(#paint17_radial)"/>
<path d="M225.443 72.9856L226.177 72.3166C226.177 72.3166 231.539 71.8103 233.281 71.7954C235.338 71.7782 240.203 72.2299 240.203 72.2299L241.046 72.9856C241.046 72.9856 237.391 72.3901 233.443 72.3901C229.422 72.3901 225.443 72.9856 225.443 72.9856Z" fill="url(#paint18_radial)"/>
<path d="M224.473 76.3066C224.55 77.407 224.803 77.5383 224.803 77.5383H241.742C241.742 77.5383 241.995 77.407 242.072 76.3066H224.473Z" fill="url(#paint19_radial)"/>
<path d="M241.968 76.7503H224.591C224.382 76.7503 224.213 76.5788 224.213 76.3675V75.4178C224.213 75.2064 224.382 75.0352 224.591 75.0352H241.968C242.177 75.0352 242.346 75.2064 242.346 75.4178V76.3675C242.346 76.5788 242.177 76.7503 241.968 76.7503Z" fill="url(#paint20_radial)"/>
<path d="M240.981 75.4159H224.588C224.512 75.4159 224.451 75.354 224.451 75.2774V75.2772C224.451 75.2006 224.512 75.1387 224.588 75.1387H240.981C241.056 75.1387 241.118 75.2006 241.118 75.2772V75.2774C241.118 75.354 241.056 75.4159 240.981 75.4159Z" fill="url(#paint21_radial)"/>
<path d="M225.949 78.9349C225.9 78.9349 225.852 78.9041 225.828 78.8659C225.8 78.8221 225.795 78.7704 225.792 78.7205C225.775 78.4458 225.776 78.1709 225.779 77.8961C225.78 77.8246 225.799 77.7458 225.896 77.7274C225.906 77.7257 225.916 77.7246 225.927 77.7246C225.986 77.7246 226.05 77.7534 226.077 77.7972C226.105 77.8424 226.104 77.8961 226.103 77.9472C226.096 78.2119 226.089 78.4764 226.082 78.7411C226.081 78.7795 226.08 78.8188 226.065 78.8549C226.049 78.8911 226.016 78.9241 225.972 78.9326C225.964 78.934 225.957 78.9349 225.949 78.9349Z" fill="url(#paint22_radial)"/>
<path d="M227.637 71.6874C227.637 71.6874 227.637 71.6874 227.637 71.687C227.91 71.6744 228.29 71.6566 228.737 71.6367L227.637 71.6874Z" fill="url(#paint23_radial)"/>
<path d="M227.637 71.6895C227.64 71.6839 228.411 70.399 228.944 69.8505C229.507 69.2713 230.535 68.5254 231.173 68.0828C231.441 68.0703 231.72 68.0593 232.001 68.0508C231.46 68.4669 230.597 69.1826 230.008 69.9249C229.486 70.5818 228.739 71.6365 228.737 71.6392C228.29 71.6591 227.91 71.6768 227.637 71.6895Z" fill="url(#paint24_radial)"/>
<path d="M231.174 68.0795C231.506 67.849 231.732 67.7007 231.732 67.7007L232.503 67.6777C232.503 67.6777 232.302 67.8168 232.002 68.0475C231.721 68.056 231.442 68.0671 231.174 68.0795Z" fill="url(#paint25_radial)"/>
<path d="M231.242 71.5329C231.888 71.5094 232.53 71.4887 233.1 71.4755L231.242 71.5329ZM236.232 67.7576C236.045 67.746 235.847 67.7351 235.642 67.7252C235.642 67.7246 235.642 67.7246 235.642 67.7246L236.241 67.7492C236.241 67.7492 236.238 67.7523 236.232 67.7576Z" fill="url(#paint26_radial)"/>
<path d="M231.242 71.5337C231.248 71.5272 232.32 70.2548 233.137 69.537C233.67 69.0685 234.57 68.4428 235.134 68.0625C235.385 68.0724 235.628 68.084 235.858 68.0967C235.41 68.5066 234.683 69.1891 234.31 69.6295C233.749 70.2921 233.104 71.4702 233.1 71.4763C232.53 71.4896 231.888 71.5102 231.242 71.5337Z" fill="url(#paint27_radial)"/>
<path d="M235.857 68.0992C235.626 68.0865 235.383 68.0749 235.133 68.065C235.423 67.8694 235.624 67.7392 235.64 67.7285C235.846 67.7384 236.044 67.7494 236.231 67.761C236.194 67.7941 236.052 67.9209 235.857 68.0992Z" fill="url(#paint28_radial)"/>
<path d="M238.25 71.6148L237.021 71.5429C237.478 71.5661 237.895 71.5913 238.25 71.6148ZM238.956 70.0621L238.875 69.8086L238.956 70.0621Z" fill="url(#paint29_radial)"/>
<path d="M238.25 71.6183C237.895 71.5948 237.478 71.5696 237.021 71.5464C237.049 71.5428 238.24 70.4153 238.698 69.9805L238.872 70.5441L238.25 71.6183Z" fill="url(#paint30_radial)"/>
<path d="M238.871 70.5406L238.697 69.977C238.806 69.8734 238.874 69.8093 238.874 69.8086L238.955 70.0621L239.023 70.279L238.871 70.5406Z" fill="url(#paint31_radial)"/>
<path d="M235.629 76.4344H231.005C230.851 76.4344 230.725 76.3072 230.725 76.1502V75.5968C230.725 75.4396 230.851 75.3125 231.005 75.3125H235.629C235.785 75.3125 235.91 75.4396 235.91 75.5968V76.1502C235.91 76.3072 235.785 76.4344 235.629 76.4344Z" fill="url(#paint32_radial)"/>
<path d="M226.799 74.0324C226.799 74.5302 226.402 74.9335 225.911 74.9335C225.421 74.9335 225.023 74.5302 225.023 74.0324C225.023 73.5345 225.421 73.1309 225.911 73.1309C226.402 73.1309 226.799 73.5345 226.799 74.0324Z" fill="url(#paint33_radial)"/>
<path d="M226.666 74.0429C226.666 74.4679 226.327 74.8122 225.908 74.8122C225.49 74.8122 225.15 74.4679 225.15 74.0429C225.15 73.6181 225.49 73.2734 225.908 73.2734C226.327 73.2734 226.666 73.6181 226.666 74.0429Z" fill="url(#paint34_radial)"/>
<path d="M226.346 73.416C226.453 73.5484 226.517 73.7177 226.517 73.9021C226.517 74.3271 226.177 74.6718 225.759 74.6718C225.595 74.6718 225.444 74.6189 225.32 74.5296C225.459 74.7022 225.671 74.8127 225.908 74.8127C226.326 74.8127 226.665 74.4684 226.665 74.0434C226.665 73.7844 226.539 73.5553 226.346 73.416Z" fill="url(#paint35_radial)"/>
<path d="M225.595 74.3666C225.519 74.3666 225.441 74.3299 225.391 74.2697C225.314 74.177 225.297 74.0452 225.316 73.9253C225.351 73.7078 225.509 73.5236 225.711 73.4485C225.756 73.4315 225.84 73.416 225.925 73.416C226.055 73.416 226.186 73.4527 226.184 73.5787C226.182 73.6589 226.089 73.7005 226.01 73.7114C225.932 73.7225 225.84 73.7295 225.798 73.7971C225.753 73.8677 225.79 73.9593 225.806 74.0414C225.826 74.1471 225.799 74.2703 225.712 74.3313C225.677 74.3556 225.637 74.3666 225.595 74.3666Z" fill="url(#paint36_radial)"/>
<path d="M228.678 74.0105C228.678 74.5087 228.281 74.912 227.79 74.912C227.3 74.912 226.902 74.5087 226.902 74.0105C226.902 73.5128 227.3 73.1094 227.79 73.1094C228.281 73.1094 228.678 73.5128 228.678 74.0105Z" fill="url(#paint37_radial)"/>
<path d="M228.549 74.0212C228.549 74.4461 228.21 74.7908 227.791 74.7908C227.373 74.7908 227.033 74.4461 227.033 74.0212C227.033 73.5964 227.373 73.252 227.791 73.252C228.21 73.252 228.549 73.5964 228.549 74.0212Z" fill="url(#paint38_radial)"/>
<path d="M228.229 73.3926C228.336 73.5253 228.399 73.6946 228.399 73.879C228.399 74.304 228.06 74.6483 227.642 74.6483C227.478 74.6483 227.327 74.5958 227.203 74.5065C227.342 74.6791 227.554 74.7896 227.791 74.7896C228.209 74.7896 228.548 74.4449 228.548 74.0201C228.548 73.7609 228.422 73.5322 228.229 73.3926Z" fill="url(#paint39_radial)"/>
<path d="M227.476 74.3435C227.4 74.3435 227.322 74.3065 227.272 74.2466C227.195 74.1539 227.177 74.022 227.197 73.9022C227.232 73.6847 227.39 73.5005 227.592 73.4254C227.637 73.4085 227.721 73.3926 227.806 73.3926C227.936 73.3926 228.067 73.4297 228.065 73.5556C228.063 73.6356 227.97 73.6774 227.891 73.6883C227.813 73.6994 227.721 73.7064 227.679 73.774C227.634 73.8446 227.671 73.9359 227.686 74.0184C227.706 74.124 227.68 74.247 227.593 74.3082C227.558 74.3325 227.518 74.3435 227.476 74.3435Z" fill="url(#paint40_radial)"/>
<path d="M239.795 74.0949C239.795 74.5926 239.398 74.996 238.907 74.996C238.417 74.996 238.02 74.5926 238.02 74.0949C238.02 73.5967 238.417 73.1934 238.907 73.1934C239.398 73.1934 239.795 73.5967 239.795 74.0949Z" fill="url(#paint41_radial)"/>
<path d="M239.666 74.1052C239.666 74.5303 239.327 74.8747 238.908 74.8747C238.49 74.8747 238.15 74.5303 238.15 74.1052C238.15 73.6802 238.49 73.3359 238.908 73.3359C239.327 73.3359 239.666 73.6802 239.666 74.1052Z" fill="url(#paint42_radial)"/>
<path d="M239.346 73.4766C239.453 73.6091 239.517 73.7783 239.517 73.9628C239.517 74.3877 239.177 74.7321 238.759 74.7321C238.595 74.7321 238.444 74.6795 238.32 74.5903C238.459 74.7629 238.671 74.8733 238.907 74.8733C239.326 74.8733 239.665 74.5289 239.665 74.1038C239.665 73.8447 239.539 73.6158 239.346 73.4766Z" fill="url(#paint43_radial)"/>
<path d="M238.595 74.4273C238.519 74.4273 238.441 74.3905 238.391 74.3304C238.314 74.2377 238.297 74.1057 238.316 73.986C238.35 73.7685 238.509 73.5843 238.711 73.5091C238.756 73.4921 238.84 73.4766 238.925 73.4766C239.055 73.4766 239.186 73.5133 239.184 73.6393C239.182 73.7196 239.088 73.7611 239.01 73.7721C238.932 73.7831 238.84 73.7902 238.797 73.8577C238.753 73.9284 238.79 74.0196 238.806 74.1021C238.825 74.2078 238.799 74.3306 238.712 74.392C238.677 74.4162 238.636 74.4273 238.595 74.4273Z" fill="url(#paint44_radial)"/>
<path d="M241.694 74.1027C241.694 74.6005 241.296 75.0038 240.806 75.0038C240.315 75.0038 239.918 74.6005 239.918 74.1027C239.918 73.6049 240.315 73.2012 240.806 73.2012C241.296 73.2012 241.694 73.6049 241.694 74.1027Z" fill="url(#paint45_radial)"/>
<path d="M241.565 74.1111C241.565 74.5363 241.225 74.8806 240.807 74.8806C240.388 74.8806 240.049 74.5363 240.049 74.1111C240.049 73.6862 240.388 73.3418 240.807 73.3418C241.225 73.3418 241.565 73.6862 241.565 74.1111Z" fill="url(#paint46_radial)"/>
<path d="M241.244 73.4844C241.351 73.6168 241.415 73.7861 241.415 73.9705C241.415 74.3955 241.076 74.7398 240.657 74.7398C240.494 74.7398 240.342 74.6873 240.219 74.598C240.358 74.7706 240.569 74.881 240.806 74.881C241.224 74.881 241.564 74.5367 241.564 74.1115C241.564 73.8527 241.438 73.6236 241.244 73.4844Z" fill="url(#paint47_radial)"/>
<path d="M240.494 74.435C240.418 74.435 240.339 74.398 240.289 74.3381C240.212 74.2454 240.195 74.1135 240.214 73.9937C240.249 73.7762 240.408 73.592 240.61 73.5168C240.655 73.4999 240.739 73.4844 240.824 73.4844C240.953 73.4844 241.085 73.5211 241.082 73.647C241.08 73.7273 240.987 73.7689 240.909 73.7798C240.831 73.7908 240.739 73.7979 240.696 73.8654C240.651 73.9361 240.689 74.0273 240.704 74.1099C240.724 74.2155 240.698 74.3386 240.61 74.3997C240.576 74.4239 240.535 74.435 240.494 74.435Z" fill="url(#paint48_radial)"/>
<path d="M232.904 72.7275C232.795 72.7721 232.712 72.882 232.753 72.9792C232.778 73.0371 232.841 73.0781 232.908 73.1018C232.975 73.1253 233.047 73.1346 233.118 73.149C233.291 73.1845 233.463 73.2606 233.552 73.3919C233.609 73.2218 233.826 73.1309 234.029 73.0896C234.134 73.0681 234.259 73.0422 234.297 72.9558C234.325 72.891 234.286 72.8158 234.224 72.7718C234.161 72.728 234.079 72.7091 233.999 72.6958C233.787 72.6602 233.578 72.665 233.363 72.676C233.214 72.684 233.042 72.671 232.904 72.7275Z" fill="url(#paint49_radial)"/>
<path d="M240.772 83.4204C236.05 87.537 228.85 87.0983 224.683 82.3879C220.54 77.6824 221 70.5443 225.736 66.4307C230.452 62.2941 237.657 62.7532 241.809 67.4462C245.982 72.1487 245.504 79.3016 240.772 83.4204ZM258.668 74.1255C258.641 73.1554 258.547 72.1967 258.405 71.2578L253.371 70.4303L251.665 65.7034L255.019 61.8873C254.002 60.2072 252.791 58.661 251.423 57.2699L246.86 59.5441L242.676 56.72L243.128 51.6685C241.393 50.9422 239.558 50.396 237.653 50.0684L235.282 54.5635L230.222 54.6812L227.623 50.3102C225.678 50.7503 223.818 51.4053 222.074 52.2564L222.82 57.2731L218.798 60.3269L214.112 58.3189C212.826 59.78 211.704 61.3904 210.782 63.1269L214.348 66.7459L212.912 71.5588L207.931 72.6726C207.842 73.6684 207.803 74.6862 207.835 75.7204C207.871 76.6643 207.956 77.5897 208.085 78.5023L213.12 79.3446L214.811 84.0767L211.435 87.884C212.455 89.565 213.66 91.1281 215.029 92.5231L219.601 90.2634L223.777 93.0992L223.304 98.1521C225.094 98.9043 226.983 99.4706 228.946 99.8035L231.304 95.2978L236.364 95.1588L238.971 99.5235C240.915 99.0752 242.771 98.4104 244.514 97.5556L243.754 92.5415L247.762 89.4707L252.453 91.4659C253.74 89.9946 254.859 88.3816 255.773 86.6467L252.186 83.0422L253.605 78.2148L258.589 77.0931C258.669 76.1148 258.703 75.1233 258.668 74.1255Z" fill="url(#paint50_linear)"/>
<path d="M243.183 86.1431C236.946 91.5828 227.433 90.9735 221.953 84.7803C216.457 78.5755 217.075 69.1432 223.312 63.697C229.556 58.2563 239.075 58.8735 244.556 65.0687C250.039 71.2606 249.427 80.7022 243.183 86.1431ZM245.785 63.9987C239.707 57.1301 229.154 56.4459 222.232 62.4777C215.318 68.5158 214.632 78.9729 220.725 85.8516C226.802 92.7179 237.347 93.3936 244.262 87.3627C251.184 81.3309 251.863 70.863 245.785 63.9987Z" fill="#D8D9DA"/>
<path d="M223.609 92.9837L223.776 93.0968L223.388 98.1066L223.303 98.1496C225.093 98.9019 226.982 99.4681 228.945 99.801L228.899 99.7192L231.303 95.2954L236.363 95.1564L239.021 99.4349L238.971 99.521C240.914 99.0728 242.77 98.4079 244.514 97.5531L244.43 97.5173L243.753 92.5391L247.761 89.4683L252.447 91.3783L252.452 91.4634C253.739 89.9921 254.858 88.3791 255.772 86.6442L255.684 86.6679L252.185 83.0397L253.604 78.2123L258.523 77.0285L258.588 77.0907C258.668 76.1123 258.702 75.1208 258.667 74.123C258.64 73.1529 258.546 72.1942 258.404 71.2553L258.35 71.3273L256.938 71.0723C247.484 84.6037 234.169 90.4683 223.609 92.9837Z" fill="url(#paint51_linear)"/>
<path d="M244.261 87.3634C246.636 85.2939 248.275 82.7026 249.159 79.9141C248.234 80.7514 247.293 81.5425 246.341 82.2895C245.533 83.7033 244.481 85.011 243.182 86.1438C240.343 88.6194 236.825 89.838 233.318 89.8518C232.177 90.3257 231.044 90.7553 229.926 91.1444C234.861 92.1375 240.19 90.9137 244.261 87.3634Z" fill="#B1B2B3"/>
</g>
<g filter="url(#filter3_d)">
<path d="M323.739 110L320.779 101.68H309.539L306.699 110H302.859L312.619 81.68H317.339L327.459 110H323.739ZM310.659 98.48H319.619L315.059 85.64L310.659 98.48ZM331.086 105.76C332.286 106.267 333.312 106.64 334.166 106.88C335.046 107.12 335.952 107.24 336.886 107.24C338.086 107.24 339.019 106.987 339.686 106.48C340.379 105.973 340.726 105.227 340.726 104.24C340.726 103.627 340.539 103.133 340.166 102.76C339.819 102.36 339.419 102.067 338.966 101.88C338.539 101.693 337.726 101.4 336.526 101C336.339 100.947 335.632 100.707 334.406 100.28C333.179 99.8533 332.232 99.1867 331.566 98.28C330.926 97.3733 330.606 96.2533 330.606 94.92C330.606 93.2667 331.246 91.88 332.526 90.76C333.806 89.64 335.686 89.08 338.166 89.08C339.206 89.08 340.179 89.2 341.086 89.44C342.019 89.68 342.992 90 344.006 90.4L343.006 93.36C342.126 93.0133 341.299 92.7333 340.526 92.52C339.779 92.3067 338.992 92.2 338.166 92.2C336.912 92.2 335.966 92.4533 335.326 92.96C334.686 93.44 334.366 94.08 334.366 94.88C334.366 95.6267 334.619 96.1867 335.126 96.56C335.632 96.9067 336.446 97.28 337.566 97.68C337.859 97.76 338.126 97.8533 338.366 97.96L339.326 98.32C340.446 98.6933 341.339 99.0667 342.006 99.44C342.699 99.8133 343.286 100.387 343.766 101.16C344.246 101.907 344.486 102.907 344.486 104.16C344.486 106.133 343.779 107.667 342.366 108.76C340.979 109.827 339.166 110.36 336.926 110.36C335.619 110.36 334.406 110.227 333.286 109.96C332.166 109.667 331.046 109.28 329.926 108.8L331.086 105.76ZM349.758 105.76C350.958 106.267 351.984 106.64 352.838 106.88C353.718 107.12 354.624 107.24 355.558 107.24C356.758 107.24 357.691 106.987 358.358 106.48C359.051 105.973 359.398 105.227 359.398 104.24C359.398 103.627 359.211 103.133 358.838 102.76C358.491 102.36 358.091 102.067 357.638 101.88C357.211 101.693 356.398 101.4 355.198 101C355.011 100.947 354.304 100.707 353.078 100.28C351.851 99.8533 350.904 99.1867 350.238 98.28C349.598 97.3733 349.278 96.2533 349.278 94.92C349.278 93.2667 349.918 91.88 351.198 90.76C352.478 89.64 354.358 89.08 356.838 89.08C357.878 89.08 358.851 89.2 359.758 89.44C360.691 89.68 361.664 90 362.678 90.4L361.678 93.36C360.798 93.0133 359.971 92.7333 359.198 92.52C358.451 92.3067 357.664 92.2 356.838 92.2C355.584 92.2 354.638 92.4533 353.998 92.96C353.358 93.44 353.038 94.08 353.038 94.88C353.038 95.6267 353.291 96.1867 353.798 96.56C354.304 96.9067 355.118 97.28 356.238 97.68C356.531 97.76 356.798 97.8533 357.038 97.96L357.998 98.32C359.118 98.6933 360.011 99.0667 360.678 99.44C361.371 99.8133 361.958 100.387 362.438 101.16C362.918 101.907 363.158 102.907 363.158 104.16C363.158 106.133 362.451 107.667 361.038 108.76C359.651 109.827 357.838 110.36 355.598 110.36C354.291 110.36 353.078 110.227 351.958 109.96C350.838 109.667 349.718 109.28 348.598 108.8L349.758 105.76ZM368.71 81.68H372.39V85.16H368.71V81.68ZM368.71 89.44H372.39V110H368.71V89.44ZM378.976 105.76C380.176 106.267 381.203 106.64 382.056 106.88C382.936 107.12 383.843 107.24 384.776 107.24C385.976 107.24 386.91 106.987 387.576 106.48C388.27 105.973 388.616 105.227 388.616 104.24C388.616 103.627 388.43 103.133 388.056 102.76C387.71 102.36 387.31 102.067 386.856 101.88C386.43 101.693 385.616 101.4 384.416 101C384.23 100.947 383.523 100.707 382.296 100.28C381.07 99.8533 380.123 99.1867 379.456 98.28C378.816 97.3733 378.496 96.2533 378.496 94.92C378.496 93.2667 379.136 91.88 380.416 90.76C381.696 89.64 383.576 89.08 386.056 89.08C387.096 89.08 388.07 89.2 388.976 89.44C389.91 89.68 390.883 90 391.896 90.4L390.896 93.36C390.016 93.0133 389.19 92.7333 388.416 92.52C387.67 92.3067 386.883 92.2 386.056 92.2C384.803 92.2 383.856 92.4533 383.216 92.96C382.576 93.44 382.256 94.08 382.256 94.88C382.256 95.6267 382.51 96.1867 383.016 96.56C383.523 96.9067 384.336 97.28 385.456 97.68C385.75 97.76 386.016 97.8533 386.256 97.96L387.216 98.32C388.336 98.6933 389.23 99.0667 389.896 99.44C390.59 99.8133 391.176 100.387 391.656 101.16C392.136 101.907 392.376 102.907 392.376 104.16C392.376 106.133 391.67 107.667 390.256 108.76C388.87 109.827 387.056 110.36 384.816 110.36C383.51 110.36 382.296 110.227 381.176 109.96C380.056 109.667 378.936 109.28 377.816 108.8L378.976 105.76ZM395.648 92.32V89.44H399.568L400.208 83.44H403.008V89.44H409.288V92.32H403.008V103.68C403.008 106.053 404.008 107.24 406.008 107.24C406.808 107.24 407.795 107.053 408.968 106.68L409.608 109.32C408.142 109.933 406.715 110.24 405.328 110.24C403.542 110.24 402.075 109.707 400.928 108.64C399.808 107.573 399.248 105.987 399.248 103.88V92.32H395.648Z" fill="url(#paint52_linear)"/>
</g>
<g filter="url(#filter4_d)">
<path d="M20.8359 95.76C20.8359 91.2267 21.9559 87.6933 24.1959 85.16C26.4359 82.6267 29.6493 81.36 33.8359 81.36C38.0226 81.36 41.2359 82.6267 43.4759 85.16C45.7159 87.6933 46.8359 91.2267 46.8359 95.76C46.8359 100.347 45.7026 103.947 43.4359 106.56C41.1693 109.147 37.9693 110.44 33.8359 110.44C29.6759 110.44 26.4626 109.147 24.1959 106.56C21.9559 103.973 20.8359 100.373 20.8359 95.76ZM33.8359 107.24C36.7159 107.24 38.9293 106.28 40.4759 104.36C42.0493 102.413 42.8359 99.5467 42.8359 95.76C42.8359 92.0533 42.0493 89.2667 40.4759 87.4C38.9293 85.5067 36.7159 84.56 33.8359 84.56C30.9559 84.56 28.7293 85.4933 27.1559 87.36C25.6093 89.2267 24.8359 92.0267 24.8359 95.76C24.8359 99.5733 25.6093 102.44 27.1559 104.36C28.7293 106.28 30.9559 107.24 33.8359 107.24ZM62.8359 89.08C65.0226 89.08 66.6893 89.7067 67.8359 90.96C69.0093 92.2133 69.5959 94.0267 69.5959 96.4V110H65.8359V96.68C65.8359 95.0533 65.5159 93.88 64.8759 93.16C64.2626 92.4133 63.2626 92.04 61.8759 92.04C60.6226 92.04 59.4759 92.3333 58.4359 92.92C57.3959 93.48 56.5426 94.2667 55.8759 95.28V110H52.1159V89.44H55.1959L55.6359 92.32C57.4759 90.16 59.8759 89.08 62.8359 89.08ZM91.3441 110L84.5041 98.36H84.4241H79.9041V110H76.0641V81.68H84.4241C87.6507 81.68 90.0774 82.4133 91.7041 83.88C93.3307 85.32 94.1441 87.36 94.1441 90C94.1441 92 93.6507 93.68 92.6641 95.04C91.7041 96.3733 90.2774 97.3067 88.3841 97.84L95.5441 110H91.3441ZM79.9041 95.16H84.4241C86.2641 95.16 87.6774 94.72 88.6641 93.84C89.6507 92.96 90.1441 91.68 90.1441 90C90.1441 88.32 89.6507 87.0533 88.6641 86.2C87.7041 85.32 86.2907 84.88 84.4241 84.88H79.9041V95.16ZM98.3322 99.68C98.3322 96.3467 99.1722 93.7467 100.852 91.88C102.559 90.0133 104.972 89.08 108.092 89.08C111.212 89.08 113.612 90.0133 115.292 91.88C116.999 93.7467 117.852 96.3467 117.852 99.68C117.852 103.013 116.999 105.627 115.292 107.52C113.612 109.387 111.212 110.32 108.092 110.32C104.972 110.32 102.559 109.387 100.852 107.52C99.1722 105.627 98.3322 103.013 98.3322 99.68ZM102.172 99.68C102.172 102.187 102.679 104.093 103.692 105.4C104.732 106.707 106.199 107.36 108.092 107.36C109.986 107.36 111.439 106.707 112.452 105.4C113.492 104.093 114.012 102.187 114.012 99.68C114.012 97.1733 113.492 95.28 112.452 94C111.439 92.6933 109.986 92.04 108.092 92.04C106.199 92.04 104.732 92.6933 103.692 94C102.679 95.28 102.172 97.1733 102.172 99.68ZM121.455 104.44C121.455 102.253 122.335 100.56 124.095 99.36C125.855 98.16 128.349 97.56 131.575 97.56H134.615V96.76C134.615 95.0533 134.255 93.84 133.535 93.12C132.842 92.4 131.642 92.04 129.935 92.04C128.842 92.04 127.869 92.1467 127.015 92.36C126.162 92.5467 125.069 92.9333 123.735 93.52L122.615 90.92C125.122 89.6933 127.589 89.08 130.015 89.08C132.922 89.08 135.042 89.7067 136.375 90.96C137.709 92.1867 138.375 94.1467 138.375 96.84V110H135.455C135.429 109.893 135.375 109.64 135.295 109.24C135.215 108.813 135.095 108.267 134.935 107.6C133.015 109.52 130.775 110.48 128.215 110.48C126.162 110.48 124.522 109.933 123.295 108.84C122.069 107.747 121.455 106.28 121.455 104.44ZM125.215 104.36C125.215 105.373 125.535 106.16 126.175 106.72C126.815 107.253 127.735 107.52 128.935 107.52C130.002 107.52 131.042 107.28 132.055 106.8C133.069 106.293 133.922 105.613 134.615 104.76V100.36H131.815C129.629 100.36 127.975 100.693 126.855 101.36C125.762 102.027 125.215 103.027 125.215 104.36ZM161.973 79.64V109.96H158.933L158.413 107.44C156.893 109.36 154.866 110.32 152.333 110.32C149.48 110.32 147.253 109.44 145.653 107.68C144.08 105.893 143.293 103.347 143.293 100.04C143.293 96.6 144.226 93.92 146.093 92C147.986 90.0533 150.573 89.08 153.853 89.08C155.266 89.08 156.72 89.2667 158.213 89.64V79.64H161.973ZM152.573 107.36C153.96 107.36 155.146 106.987 156.133 106.24C157.146 105.467 157.84 104.4 158.213 103.04V92.64C156.853 92.24 155.413 92.04 153.893 92.04C151.786 92.04 150.133 92.7467 148.933 94.16C147.733 95.5467 147.133 97.5067 147.133 100.04C147.133 102.387 147.6 104.2 148.533 105.48C149.493 106.733 150.84 107.36 152.573 107.36Z" fill="url(#paint53_linear)"/>
</g>
<defs>
<filter id="filter0_d" x="148" y="0" width="97.7168" height="136.842" filterUnits="userSpaceOnUse" color-interpolation-filters="sRGB">
<feFlood flood-opacity="0" result="BackgroundImageFix"/>
<feColorMatrix in="SourceAlpha" type="matrix" values="0 0 0 0 0 0 0 0 0 0 0 0 0 0 0 0 0 0 127 0" result="hardAlpha"/>
<feOffset dx="7" dy="7"/>
<feGaussianBlur stdDeviation="5"/>
<feComposite in2="hardAlpha" operator="out"/>
<feColorMatrix type="matrix" values="0 0 0 0 0 0 0 0 0 0 0 0 0 0 0 0 0 0 0.25 0"/>
<feBlend mode="normal" in2="BackgroundImageFix" result="effect1_dropShadow"/>
<feBlend mode="normal" in="SourceGraphic" in2="effect1_dropShadow" result="shape"/>
</filter>
<filter id="filter1_d" x="235.283" y="0" width="97.7168" height="136.842" filterUnits="userSpaceOnUse" color-interpolation-filters="sRGB">
<feFlood flood-opacity="0" result="BackgroundImageFix"/>
<feColorMatrix in="SourceAlpha" type="matrix" values="0 0 0 0 0 0 0 0 0 0 0 0 0 0 0 0 0 0 127 0" result="hardAlpha"/>
<feOffset dx="7" dy="7"/>
<feGaussianBlur stdDeviation="5"/>
<feComposite in2="hardAlpha" operator="out"/>
<feColorMatrix type="matrix" values="0 0 0 0 0 0 0 0 0 0 0 0 0 0 0 0 0 0 0.25 0"/>
<feBlend mode="normal" in2="BackgroundImageFix" result="effect1_dropShadow"/>
<feBlend mode="normal" in="SourceGraphic" in2="effect1_dropShadow" result="shape"/>
</filter>
<filter id="filter2_d" x="202.824" y="50.0684" width="90.8574" height="99.7344" filterUnits="userSpaceOnUse" color-interpolation-filters="sRGB">
<feFlood flood-opacity="0" result="BackgroundImageFix"/>
<feColorMatrix in="SourceAlpha" type="matrix" values="0 0 0 0 0 0 0 0 0 0 0 0 0 0 0 0 0 0 127 0" result="hardAlpha"/>
<feOffset dx="15" dy="30"/>
<feGaussianBlur stdDeviation="10"/>
<feColorMatrix type="matrix" values="0 0 0 0 0 0 0 0 0 0 0 0 0 0 0 0 0 0 0.5 0"/>
<feBlend mode="normal" in2="BackgroundImageFix" result="effect1_dropShadow"/>
<feBlend mode="normal" in="SourceGraphic" in2="effect1_dropShadow" result="shape"/>
</filter>
<filter id="filter3_d" x="298.859" y="81.6797" width="114.748" height="36.6797" filterUnits="userSpaceOnUse" color-interpolation-filters="sRGB">
<feFlood flood-opacity="0" result="BackgroundImageFix"/>
<feColorMatrix in="SourceAlpha" type="matrix" values="0 0 0 0 0 0 0 0 0 0 0 0 0 0 0 0 0 0 127 0" result="hardAlpha"/>
<feOffset dy="4"/>
<feGaussianBlur stdDeviation="2"/>
<feComposite in2="hardAlpha" operator="out"/>
<feColorMatrix type="matrix" values="0 0 0 0 0 0 0 0 0 0 0 0 0 0 0 0 0 0 0.25 0"/>
<feBlend mode="normal" in2="BackgroundImageFix" result="effect1_dropShadow"/>
<feBlend mode="normal" in="SourceGraphic" in2="effect1_dropShadow" result="shape"/>
</filter>
<filter id="filter4_d" x="16.8359" y="79.6406" width="149.137" height="38.8398" filterUnits="userSpaceOnUse" color-interpolation-filters="sRGB">
<feFlood flood-opacity="0" result="BackgroundImageFix"/>
<feColorMatrix in="SourceAlpha" type="matrix" values="0 0 0 0 0 0 0 0 0 0 0 0 0 0 0 0 0 0 127 0" result="hardAlpha"/>
<feOffset dy="4"/>
<feGaussianBlur stdDeviation="2"/>
<feComposite in2="hardAlpha" operator="out"/>
<feColorMatrix type="matrix" values="0 0 0 0 0 0 0 0 0 0 0 0 0 0 0 0 0 0 0.25 0"/>
<feBlend mode="normal" in2="BackgroundImageFix" result="effect1_dropShadow"/>
<feBlend mode="normal" in="SourceGraphic" in2="effect1_dropShadow" result="shape"/>
</filter>
<linearGradient id="paint0_linear" x1="198.401" y1="134.903" x2="145.874" y2="5.14867" gradientUnits="userSpaceOnUse">
<stop offset="0.32643" stop-color="#FFA500"/>
<stop offset="0.651081" stop-color="#CC8400"/>
<stop offset="1"/>
</linearGradient>
<linearGradient id="paint1_linear" x1="268.599" y1="134.903" x2="321.126" y2="5.14868" gradientUnits="userSpaceOnUse">
<stop offset="0.32643" stop-color="#FFA500"/>
<stop offset="0.651081" stop-color="#CC8400"/>
<stop offset="1"/>
</linearGradient>
<radialGradient id="paint2_radial" cx="0" cy="0" r="1" gradientUnits="userSpaceOnUse" gradientTransform="translate(225.021 71.0698) rotate(90) scale(0.579532 0.997593)">
<stop stop-color="#FFA500"/>
<stop offset="0.567708" stop-color="#B97905"/>
<stop offset="1" stop-color="#120607"/>
</radialGradient>
<radialGradient id="paint3_radial" cx="0" cy="0" r="1" gradientUnits="userSpaceOnUse" gradientTransform="translate(226.06 71.5808) rotate(90) scale(0.510505 0.524848)">
<stop stop-color="#FFA500"/>
<stop offset="0.567708" stop-color="#B97905"/>
<stop offset="1" stop-color="#120607"/>
</radialGradient>
<radialGradient id="paint4_radial" cx="0" cy="0" r="1" gradientUnits="userSpaceOnUse" gradientTransform="translate(241.498 71.0072) rotate(90) scale(0.585306 0.998175)">
<stop stop-color="#FFA500"/>
<stop offset="0.567708" stop-color="#B97905"/>
<stop offset="1" stop-color="#120607"/>
</radialGradient>
<radialGradient id="paint5_radial" cx="0" cy="0" r="1" gradientUnits="userSpaceOnUse" gradientTransform="translate(240.456 71.5078) rotate(90) scale(0.507801 0.526701)">
<stop stop-color="#FFA500"/>
<stop offset="0.567708" stop-color="#B97905"/>
<stop offset="1" stop-color="#120607"/>
</radialGradient>
<radialGradient id="paint6_radial" cx="0" cy="0" r="1" gradientUnits="userSpaceOnUse" gradientTransform="translate(233.279 79.7237) rotate(90) scale(0.190529 9.06647)">
<stop stop-color="#FFA500"/>
<stop offset="0.567708" stop-color="#B97905"/>
<stop offset="1" stop-color="#120607"/>
</radialGradient>
<radialGradient id="paint7_radial" cx="0" cy="0" r="1" gradientUnits="userSpaceOnUse" gradientTransform="translate(240.35 78.519) rotate(90) scale(1.09716 1.04964)">
<stop stop-color="#FFA500"/>
<stop offset="0.567708" stop-color="#B97905"/>
<stop offset="1" stop-color="#120607"/>
</radialGradient>
<radialGradient id="paint8_radial" cx="0" cy="0" r="1" gradientUnits="userSpaceOnUse" gradientTransform="translate(240.35 78.519) rotate(90) scale(1.09716 1.04964)">
<stop stop-color="#FFA500"/>
<stop offset="0.567708" stop-color="#B97905"/>
<stop offset="1" stop-color="#120607"/>
</radialGradient>
<radialGradient id="paint9_radial" cx="0" cy="0" r="1" gradientUnits="userSpaceOnUse" gradientTransform="translate(239.702 78.3297) rotate(90) scale(0.605135 0.162922)">
<stop stop-color="#FFA500"/>
<stop offset="0.567708" stop-color="#B97905"/>
<stop offset="1" stop-color="#120607"/>
</radialGradient>
<radialGradient id="paint10_radial" cx="0" cy="0" r="1" gradientUnits="userSpaceOnUse" gradientTransform="translate(226.585 78.519) rotate(90) scale(1.09716 1.04959)">
<stop stop-color="#FFA500"/>
<stop offset="0.567708" stop-color="#B97905"/>
<stop offset="1" stop-color="#120607"/>
</radialGradient>
<radialGradient id="paint11_radial" cx="0" cy="0" r="1" gradientUnits="userSpaceOnUse" gradientTransform="translate(226.585 78.519) rotate(90) scale(1.09716 1.04959)">
<stop stop-color="#FFA500"/>
<stop offset="0.567708" stop-color="#B97905"/>
<stop offset="1" stop-color="#120607"/>
</radialGradient>
<radialGradient id="paint12_radial" cx="0" cy="0" r="1" gradientUnits="userSpaceOnUse" gradientTransform="translate(233.272 69.6435) rotate(90) scale(2.33099 7.09434)">
<stop stop-color="#FFA500"/>
<stop offset="0.567708" stop-color="#B97905"/>
<stop offset="1" stop-color="#120607"/>
</radialGradient>
<radialGradient id="paint13_radial" cx="0" cy="0" r="1" gradientUnits="userSpaceOnUse" gradientTransform="translate(233.273 74.7545) rotate(90) scale(2.78184 8.82194)">
<stop stop-color="#FFA500"/>
<stop offset="0.567708" stop-color="#B97905"/>
<stop offset="1" stop-color="#120607"/>
</radialGradient>
<radialGradient id="paint14_radial" cx="0" cy="0" r="1" gradientUnits="userSpaceOnUse" gradientTransform="translate(233.291 74.1077) rotate(90) scale(0.687805 7.9234)">
<stop stop-color="#FFA500"/>
<stop offset="0.567708" stop-color="#B97905"/>
<stop offset="1" stop-color="#120607"/>
</radialGradient>
<radialGradient id="paint15_radial" cx="0" cy="0" r="1" gradientUnits="userSpaceOnUse" gradientTransform="translate(233.29 74.1036) rotate(90) scale(0.750087 7.98505)">
<stop stop-color="#FFA500"/>
<stop offset="0.567708" stop-color="#B97905"/>
<stop offset="1" stop-color="#120607"/>
</radialGradient>
<radialGradient id="paint16_radial" cx="0" cy="0" r="1" gradientUnits="userSpaceOnUse" gradientTransform="translate(233.327 69.6893) rotate(90) scale(2.0194 6.14574)">
<stop stop-color="#FFA500"/>
<stop offset="0.567708" stop-color="#B97905"/>
<stop offset="1" stop-color="#120607"/>
</radialGradient>
<radialGradient id="paint17_radial" cx="0" cy="0" r="1" gradientUnits="userSpaceOnUse" gradientTransform="translate(233.327 69.6893) rotate(90) scale(2.0194 6.14574)">
<stop stop-color="#FFA500"/>
<stop offset="0.567708" stop-color="#B97905"/>
<stop offset="1" stop-color="#120607"/>
</radialGradient>
<radialGradient id="paint18_radial" cx="0" cy="0" r="1" gradientUnits="userSpaceOnUse" gradientTransform="translate(233.245 72.3903) rotate(90) scale(0.595332 7.80133)">
<stop stop-color="#FFA500"/>
<stop offset="0.567708" stop-color="#B97905"/>
<stop offset="1" stop-color="#120607"/>
</radialGradient>
<radialGradient id="paint19_radial" cx="0" cy="0" r="1" gradientUnits="userSpaceOnUse" gradientTransform="translate(233.273 76.9225) rotate(90) scale(0.615839 8.7999)">
<stop stop-color="#FFA500"/>
<stop offset="0.567708" stop-color="#B97905"/>
<stop offset="1" stop-color="#120607"/>
</radialGradient>
<radialGradient id="paint20_radial" cx="0" cy="0" r="1" gradientUnits="userSpaceOnUse" gradientTransform="translate(233.279 75.8927) rotate(90) scale(0.857573 9.06647)">
<stop stop-color="#FFA500"/>
<stop offset="0.567708" stop-color="#B97905"/>
<stop offset="1" stop-color="#120607"/>
</radialGradient>
<radialGradient id="paint21_radial" cx="0" cy="0" r="1" gradientUnits="userSpaceOnUse" gradientTransform="translate(232.784 75.2773) rotate(90) scale(0.138607 8.33321)">
<stop stop-color="#FFA500"/>
<stop offset="0.567708" stop-color="#B97905"/>
<stop offset="1" stop-color="#120607"/>
</radialGradient>
<radialGradient id="paint22_radial" cx="0" cy="0" r="1" gradientUnits="userSpaceOnUse" gradientTransform="translate(225.94 78.3297) rotate(90) scale(0.605135 0.162927)">
<stop stop-color="#FFA500"/>
<stop offset="0.567708" stop-color="#B97905"/>
<stop offset="1" stop-color="#120607"/>
</radialGradient>
<radialGradient id="paint23_radial" cx="0" cy="0" r="1" gradientUnits="userSpaceOnUse" gradientTransform="translate(228.187 71.662) rotate(90) scale(0.0253266 0.549973)">
<stop stop-color="#FFA500"/>
<stop offset="0.567708" stop-color="#B97905"/>
<stop offset="1" stop-color="#120607"/>
</radialGradient>
<radialGradient id="paint24_radial" cx="0" cy="0" r="1" gradientUnits="userSpaceOnUse" gradientTransform="translate(229.819 69.8702) rotate(90) scale(1.81938 2.18202)">
<stop stop-color="#FFA500"/>
<stop offset="0.567708" stop-color="#B97905"/>
<stop offset="1" stop-color="#120607"/>
</radialGradient>
<radialGradient id="paint25_radial" cx="0" cy="0" r="1" gradientUnits="userSpaceOnUse" gradientTransform="translate(231.838 67.8786) rotate(90) scale(0.200902 0.664372)">
<stop stop-color="#FFA500"/>
<stop offset="0.567708" stop-color="#B97905"/>
<stop offset="1" stop-color="#120607"/>
</radialGradient>
<radialGradient id="paint26_radial" cx="0" cy="0" r="1" gradientUnits="userSpaceOnUse" gradientTransform="translate(233.742 69.6287) rotate(90) scale(1.90413 2.49965)">
<stop stop-color="#FFA500"/>
<stop offset="0.567708" stop-color="#B97905"/>
<stop offset="1" stop-color="#120607"/>
</radialGradient>
<radialGradient id="paint27_radial" cx="0" cy="0" r="1" gradientUnits="userSpaceOnUse" gradientTransform="translate(233.55 69.7981) rotate(90) scale(1.73562 2.30797)">
<stop stop-color="#FFA500"/>
<stop offset="0.567708" stop-color="#B97905"/>
<stop offset="1" stop-color="#120607"/>
</radialGradient>
<radialGradient id="paint28_radial" cx="0" cy="0" r="1" gradientUnits="userSpaceOnUse" gradientTransform="translate(235.682 67.9139) rotate(90) scale(0.185342 0.548992)">
<stop stop-color="#FFA500"/>
<stop offset="0.567708" stop-color="#B97905"/>
<stop offset="1" stop-color="#120607"/>
</radialGradient>
<radialGradient id="paint29_radial" cx="0" cy="0" r="1" gradientUnits="userSpaceOnUse" gradientTransform="translate(237.989 70.7117) rotate(90) scale(0.903095 0.967018)">
<stop stop-color="#FFA500"/>
<stop offset="0.567708" stop-color="#B97905"/>
<stop offset="1" stop-color="#120607"/>
</radialGradient>
<radialGradient id="paint30_radial" cx="0" cy="0" r="1" gradientUnits="userSpaceOnUse" gradientTransform="translate(237.947 70.7994) rotate(90) scale(0.818894 0.925433)">
<stop stop-color="#FFA500"/>
<stop offset="0.567708" stop-color="#B97905"/>
<stop offset="1" stop-color="#120607"/>
</radialGradient>
<radialGradient id="paint31_radial" cx="0" cy="0" r="1" gradientUnits="userSpaceOnUse" gradientTransform="translate(238.86 70.1746) rotate(90) scale(0.365994 0.162959)">
<stop stop-color="#FFA500"/>
<stop offset="0.567708" stop-color="#B97905"/>
<stop offset="1" stop-color="#120607"/>
</radialGradient>
<radialGradient id="paint32_radial" cx="0" cy="0" r="1" gradientUnits="userSpaceOnUse" gradientTransform="translate(233.317 75.8734) rotate(90) scale(0.560937 2.59274)">
<stop stop-color="#FFA500"/>
<stop offset="0.567708" stop-color="#B97905"/>
<stop offset="1" stop-color="#120607"/>
</radialGradient>
<radialGradient id="paint33_radial" cx="0" cy="0" r="1" gradientUnits="userSpaceOnUse" gradientTransform="translate(225.911 74.0322) rotate(90) scale(0.901329 0.887936)">
<stop stop-color="#FFA500"/>
<stop offset="0.567708" stop-color="#B97905"/>
<stop offset="1" stop-color="#120607"/>
</radialGradient>
<radialGradient id="paint34_radial" cx="0" cy="0" r="1" gradientUnits="userSpaceOnUse" gradientTransform="translate(225.908 74.0428) rotate(90) scale(0.769399 0.757896)">
<stop stop-color="#FFA500"/>
<stop offset="0.567708" stop-color="#B97905"/>
<stop offset="1" stop-color="#120607"/>
</radialGradient>
<radialGradient id="paint35_radial" cx="0" cy="0" r="1" gradientUnits="userSpaceOnUse" gradientTransform="translate(225.993 74.1143) rotate(90) scale(0.69833 0.672547)">
<stop stop-color="#FFA500"/>
<stop offset="0.567708" stop-color="#B97905"/>
<stop offset="1" stop-color="#120607"/>
</radialGradient>
<radialGradient id="paint36_radial" cx="0" cy="0" r="1" gradientUnits="userSpaceOnUse" gradientTransform="translate(225.746 73.8913) rotate(90) scale(0.475301 0.437561)">
<stop stop-color="#FFA500"/>
<stop offset="0.567708" stop-color="#B97905"/>
<stop offset="1" stop-color="#120607"/>
</radialGradient>
<radialGradient id="paint37_radial" cx="0" cy="0" r="1" gradientUnits="userSpaceOnUse" gradientTransform="translate(227.79 74.0107) rotate(90) scale(0.901329 0.887936)">
<stop stop-color="#FFA500"/>
<stop offset="0.567708" stop-color="#B97905"/>
<stop offset="1" stop-color="#120607"/>
</radialGradient>
<radialGradient id="paint38_radial" cx="0" cy="0" r="1" gradientUnits="userSpaceOnUse" gradientTransform="translate(227.791 74.0214) rotate(90) scale(0.769399 0.757896)">
<stop stop-color="#FFA500"/>
<stop offset="0.567708" stop-color="#B97905"/>
<stop offset="1" stop-color="#120607"/>
</radialGradient>
<radialGradient id="paint39_radial" cx="0" cy="0" r="1" gradientUnits="userSpaceOnUse" gradientTransform="translate(227.876 74.0911) rotate(90) scale(0.698496 0.672656)">
<stop stop-color="#FFA500"/>
<stop offset="0.567708" stop-color="#B97905"/>
<stop offset="1" stop-color="#120607"/>
</radialGradient>
<radialGradient id="paint40_radial" cx="0" cy="0" r="1" gradientUnits="userSpaceOnUse" gradientTransform="translate(227.627 73.868) rotate(90) scale(0.475467 0.437562)">
<stop stop-color="#FFA500"/>
<stop offset="0.567708" stop-color="#B97905"/>
<stop offset="1" stop-color="#120607"/>
</radialGradient>
<radialGradient id="paint41_radial" cx="0" cy="0" r="1" gradientUnits="userSpaceOnUse" gradientTransform="translate(238.907 74.0947) rotate(90) scale(0.901329 0.887936)">
<stop stop-color="#FFA500"/>
<stop offset="0.567708" stop-color="#B97905"/>
<stop offset="1" stop-color="#120607"/>
</radialGradient>
<radialGradient id="paint42_radial" cx="0" cy="0" r="1" gradientUnits="userSpaceOnUse" gradientTransform="translate(238.908 74.1053) rotate(90) scale(0.769399 0.757896)">
<stop stop-color="#FFA500"/>
<stop offset="0.567708" stop-color="#B97905"/>
<stop offset="1" stop-color="#120607"/>
</radialGradient>
<radialGradient id="paint43_radial" cx="0" cy="0" r="1" gradientUnits="userSpaceOnUse" gradientTransform="translate(238.993 74.1749) rotate(90) scale(0.698385 0.672492)">
<stop stop-color="#FFA500"/>
<stop offset="0.567708" stop-color="#B97905"/>
<stop offset="1" stop-color="#120607"/>
</radialGradient>
<radialGradient id="paint44_radial" cx="0" cy="0" r="1" gradientUnits="userSpaceOnUse" gradientTransform="translate(238.746 73.9519) rotate(90) scale(0.475357 0.437532)">
<stop stop-color="#FFA500"/>
<stop offset="0.567708" stop-color="#B97905"/>
<stop offset="1" stop-color="#120607"/>
</radialGradient>
<radialGradient id="paint45_radial" cx="0" cy="0" r="1" gradientUnits="userSpaceOnUse" gradientTransform="translate(240.806 74.1025) rotate(90) scale(0.901329 0.887936)">
<stop stop-color="#FFA500"/>
<stop offset="0.567708" stop-color="#B97905"/>
<stop offset="1" stop-color="#120607"/>
</radialGradient>
<radialGradient id="paint46_radial" cx="0" cy="0" r="1" gradientUnits="userSpaceOnUse" gradientTransform="translate(240.807 74.1112) rotate(90) scale(0.769399 0.757896)">
<stop stop-color="#FFA500"/>
<stop offset="0.567708" stop-color="#B97905"/>
<stop offset="1" stop-color="#120607"/>
</radialGradient>
<radialGradient id="paint47_radial" cx="0" cy="0" r="1" gradientUnits="userSpaceOnUse" gradientTransform="translate(240.891 74.1827) rotate(90) scale(0.69833 0.672492)">
<stop stop-color="#FFA500"/>
<stop offset="0.567708" stop-color="#B97905"/>
<stop offset="1" stop-color="#120607"/>
</radialGradient>
<radialGradient id="paint48_radial" cx="0" cy="0" r="1" gradientUnits="userSpaceOnUse" gradientTransform="translate(240.645 73.9597) rotate(90) scale(0.475301 0.437515)">
<stop stop-color="#FFA500"/>
<stop offset="0.567708" stop-color="#B97905"/>
<stop offset="1" stop-color="#120607"/>
</radialGradient>
<radialGradient id="paint49_radial" cx="0" cy="0" r="1" gradientUnits="userSpaceOnUse" gradientTransform="translate(233.524 73.0299) rotate(90) scale(0.361968 0.782018)">
<stop stop-color="#FFA500"/>
<stop offset="0.567708" stop-color="#B97905"/>
<stop offset="1" stop-color="#120607"/>
</radialGradient>
<linearGradient id="paint50_linear" x1="225.203" y1="46.9441" x2="247.301" y2="98.287" gradientUnits="userSpaceOnUse">
<stop stop-color="#FFA500"/>
<stop offset="0.484375" stop-color="#BE7C02"/>
<stop offset="1"/>
</linearGradient>
<linearGradient id="paint51_linear" x1="242.957" y1="71.0722" x2="240.991" y2="103.421" gradientUnits="userSpaceOnUse">
<stop stop-color="#FFA601"/>
<stop offset="1" stop-opacity="0"/>
</linearGradient>
<linearGradient id="paint52_linear" x1="327.636" y1="65.1429" x2="385.03" y2="114.271" gradientUnits="userSpaceOnUse">
<stop stop-color="#EC9901"/>
<stop offset="1"/>
</linearGradient>
<linearGradient id="paint53_linear" x1="61.6519" y1="65.1429" x2="119.42" y2="117.135" gradientUnits="userSpaceOnUse">
<stop stop-color="#EC9901"/>
<stop offset="1"/>
</linearGradient>
</defs>
</svg>
