<svg width="398" height="150" viewBox="0 0 398 150" fill="none" xmlns="http://www.w3.org/2000/svg">
<g filter="url(#filter0_d)">
<path d="M185.792 75.7439C185.792 63.979 191.735 53.6026 200.783 47.4518C196.961 47.1795 193.107 47.8133 189.29 48.0427C185.534 48.2686 181.732 47.7692 178.104 46.7899C170.598 44.7644 164.082 40.1328 158.392 34.8354C146.877 24.1146 139.73 12.7325 137.775 3.00071C136.422 18.2913 141.572 29.8438 149.789 40.1295C158.007 50.4153 168.319 56.6737 182.083 63.0266C161.172 58.7914 142.642 43.4383 135 29.9283C137.481 42.1149 144.44 52.0174 152.701 60.2471C160.962 68.4768 168.451 74.2764 180.56 80.9442C165.528 75.0249 151.815 65.7792 140.691 54.0623C143.253 64.8747 151.213 73.6888 160.219 80.1975C169.225 86.7059 179.418 91.3531 188.933 97.0923C198.447 102.831 207.567 109.995 212.716 119.842C211.616 115.365 209.479 111.237 206.952 107.359C194.533 102.236 185.792 90.0118 185.792 75.7439Z" fill="url(#paint0_linear)"/>
</g>
<g filter="url(#filter1_d)">
<path d="M249.208 75.7439C249.208 63.979 243.265 53.6026 234.217 47.4518C238.039 47.1795 241.893 47.8133 245.71 48.0427C249.466 48.2686 253.268 47.7692 256.896 46.7899C264.402 44.7644 270.918 40.1328 276.608 34.8354C288.123 24.1146 295.27 12.7325 297.225 3.00071C298.578 18.2913 293.428 29.8438 285.211 40.1295C276.993 50.4153 266.681 56.6737 252.917 63.0266C273.828 58.7914 292.358 43.4383 300 29.9283C297.519 42.1149 290.56 52.0174 282.299 60.2471C274.038 68.4768 266.549 74.2764 254.44 80.9442C269.472 75.0249 283.185 65.7792 294.309 54.0623C291.747 64.8747 283.787 73.6888 274.781 80.1975C265.775 86.7059 255.582 91.3531 246.067 97.0923C236.553 102.831 227.433 109.995 222.284 119.842C223.384 115.365 225.521 111.237 228.048 107.359C240.467 102.236 249.208 90.0118 249.208 75.7439Z" fill="url(#paint1_linear)"/>
</g>
<g filter="url(#filter2_d)">
<ellipse cx="217.576" cy="75.1216" rx="11.752" ry="11.4927" fill="white"/>
<path d="M209.501 71.6493H208.542C208.255 71.6493 208.023 71.4146 208.023 71.1247V71.0145C208.023 70.725 208.255 70.4902 208.542 70.4902H209.501C209.787 70.4902 210.019 70.725 210.019 71.0145V71.1247C210.019 71.4146 209.787 71.6493 209.501 71.6493Z" fill="url(#paint2_radial)"/>
<path d="M209.535 71.2825L210.184 72.0913L210.585 71.6031L209.747 71.0703L209.535 71.2825Z" fill="url(#paint3_radial)"/>
<path d="M225.012 71.5811L225.971 71.5925C226.257 71.5958 226.492 71.3638 226.495 71.0742L226.496 70.9641C226.5 70.6743 226.271 70.4369 225.985 70.4335L225.026 70.4219C224.74 70.4186 224.505 70.6508 224.501 70.9404L224.5 71.0505C224.497 71.3401 224.726 71.5777 225.012 71.5811Z" fill="url(#paint4_radial)"/>
<path d="M224.983 71.2144L224.325 72.0156L223.93 71.5226L224.774 71L224.983 71.2144Z" fill="url(#paint5_radial)"/>
<path d="M226.215 79.9143H208.344C208.272 79.9143 208.213 79.8547 208.213 79.7813V79.6663C208.213 79.5928 208.272 79.5332 208.344 79.5332H226.215C226.287 79.5332 226.346 79.5928 226.346 79.6663V79.7813C226.346 79.8547 226.287 79.9143 226.215 79.9143Z" fill="url(#paint6_radial)"/>
<path d="M225.211 77.4219H223.489C223.385 77.4219 223.301 77.5075 223.301 77.6129V79.4252C223.301 79.5305 223.385 79.6162 223.489 79.6162H225.211C225.315 79.6162 225.4 79.5305 225.4 79.4252V77.6129C225.4 77.5075 225.315 77.4219 225.211 77.4219Z" fill="url(#paint7_radial)"/>
<path d="M225.194 77.4219H225.121C225.132 77.6591 225.15 77.8973 225.111 78.1323C225.048 78.5095 224.829 78.8719 224.482 79.113C224.156 79.3399 223.715 79.45 223.301 79.3884V79.4409C223.301 79.5378 223.393 79.6162 223.506 79.6162H225.194C225.308 79.6162 225.4 79.5378 225.4 79.4409V77.597C225.4 77.5004 225.308 77.4219 225.194 77.4219Z" fill="url(#paint8_radial)"/>
<path d="M223.711 78.9349C223.661 78.9349 223.614 78.9041 223.589 78.8659C223.561 78.8221 223.557 78.7704 223.554 78.7205C223.537 78.4458 223.538 78.1709 223.54 77.8961C223.541 77.8246 223.561 77.7458 223.658 77.7274C223.668 77.7257 223.678 77.7246 223.689 77.7246C223.748 77.7246 223.812 77.7534 223.838 77.7972C223.866 77.8424 223.866 77.8961 223.864 77.9472C223.858 78.2119 223.851 78.4764 223.844 78.7411C223.843 78.7795 223.842 78.8188 223.826 78.8549C223.811 78.8911 223.777 78.9241 223.733 78.9326C223.726 78.934 223.719 78.9349 223.711 78.9349Z" fill="url(#paint9_radial)"/>
<path d="M211.446 77.4219H209.724C209.62 77.4219 209.535 77.5075 209.535 77.6129V79.4252C209.535 79.5305 209.62 79.6162 209.724 79.6162H211.446C211.55 79.6162 211.634 79.5305 211.634 79.4252V77.6129C211.634 77.5075 211.55 77.4219 211.446 77.4219Z" fill="url(#paint10_radial)"/>
<path d="M211.429 77.4219H211.356C211.367 77.6591 211.384 77.8973 211.345 78.1323C211.282 78.5095 211.064 78.8719 210.717 79.113C210.391 79.3399 209.949 79.45 209.535 79.3884V79.4409C209.535 79.5378 209.627 79.6162 209.741 79.6162H211.429C211.542 79.6162 211.634 79.5378 211.634 79.4409V77.597C211.634 77.5004 211.542 77.4219 211.429 77.4219Z" fill="url(#paint11_radial)"/>
<path d="M222.72 68.2371C222.72 68.2371 222.513 67.7037 220.663 67.4661C219.068 67.2613 215.477 67.2613 213.881 67.4661C212.031 67.7037 211.824 68.2371 211.824 68.2371L210.178 71.9745H224.366L222.72 68.2371Z" fill="url(#paint12_radial)"/>
<path d="M226.054 74.481C225.932 72.6207 224.367 71.9727 224.367 71.9727H210.179C210.179 71.9727 208.614 72.6207 208.492 74.481C208.309 77.2804 208.804 77.5363 208.804 77.5363H225.743C225.743 77.5363 226.238 77.2804 226.054 74.481Z" fill="url(#paint13_radial)"/>
<path d="M225.188 73.5466C225.039 73.3777 209.542 73.3777 209.393 73.5466C209.238 73.7209 209.836 74.7955 209.836 74.7955H224.745C224.745 74.7955 225.343 73.7209 225.188 73.5466Z" fill="url(#paint14_radial)"/>
<path d="M209.871 74.7293H224.708C224.751 74.6502 224.867 74.4336 224.968 74.2061C225.172 73.7525 225.157 73.6236 225.146 73.5925C224.867 73.5259 221.595 73.4778 217.29 73.4778C212.984 73.4778 209.712 73.5259 209.433 73.5925C209.422 73.6236 209.408 73.7525 209.611 74.2061C209.713 74.4336 209.828 74.6502 209.871 74.7293ZM224.78 74.8537H209.799L209.782 74.822C209.78 74.8195 209.629 74.5477 209.5 74.2581C209.254 73.7103 209.289 73.5657 209.346 73.501C209.376 73.4671 209.417 73.4207 211.901 73.3852C213.329 73.3648 215.243 73.3535 217.29 73.3535C219.336 73.3535 221.25 73.3648 222.678 73.3852C225.162 73.4207 225.203 73.4671 225.233 73.501C225.291 73.5657 225.325 73.7103 225.08 74.2581C224.95 74.5477 224.799 74.8195 224.798 74.822L224.78 74.8537Z" fill="url(#paint15_radial)"/>
<path d="M222.422 68.3827C222.422 68.3827 222.364 68.1016 221.738 67.9236C221.287 67.7951 219.184 67.6699 217.327 67.6699C215.574 67.6699 213.368 67.7951 212.916 67.9236C212.291 68.1016 212.233 68.3827 212.233 68.3827L211.182 71.7087C211.182 71.7087 214.932 71.5228 217.27 71.4731C220.173 71.411 223.473 71.7087 223.473 71.7087L222.422 68.3827Z" fill="url(#paint16_radial)"/>
<path d="M212.342 68.7393C212.342 68.7393 212.399 68.4581 213.011 68.2802C213.453 68.1518 215.612 68.0267 217.327 68.0267C219.144 68.0267 221.202 68.1518 221.644 68.2802C222.256 68.4581 222.313 68.7393 222.313 68.7393L223.224 71.6877C223.384 71.7008 223.473 71.7087 223.473 71.7087L222.422 68.3827C222.422 68.3827 222.364 68.1016 221.738 67.9236C221.287 67.7951 219.184 67.6699 217.327 67.6699C215.574 67.6699 213.368 67.7951 212.916 67.9236C212.291 68.1016 212.233 68.3827 212.233 68.3827L211.182 71.7087C211.182 71.7087 211.27 71.7044 211.427 71.6968L212.342 68.7393Z" fill="url(#paint17_radial)"/>
<path d="M209.443 72.9856L210.177 72.3166C210.177 72.3166 215.539 71.8103 217.281 71.7954C219.338 71.7782 224.203 72.2299 224.203 72.2299L225.046 72.9856C225.046 72.9856 221.391 72.3901 217.443 72.3901C213.422 72.3901 209.443 72.9856 209.443 72.9856Z" fill="url(#paint18_radial)"/>
<path d="M208.473 76.3066C208.55 77.407 208.803 77.5383 208.803 77.5383H225.742C225.742 77.5383 225.995 77.407 226.072 76.3066H208.473Z" fill="url(#paint19_radial)"/>
<path d="M225.968 76.7503H208.591C208.382 76.7503 208.213 76.5788 208.213 76.3675V75.4178C208.213 75.2064 208.382 75.0352 208.591 75.0352H225.968C226.177 75.0352 226.346 75.2064 226.346 75.4178V76.3675C226.346 76.5788 226.177 76.7503 225.968 76.7503Z" fill="url(#paint20_radial)"/>
<path d="M224.981 75.4159H208.588C208.512 75.4159 208.451 75.354 208.451 75.2774V75.2772C208.451 75.2006 208.512 75.1387 208.588 75.1387H224.981C225.056 75.1387 225.118 75.2006 225.118 75.2772V75.2774C225.118 75.354 225.056 75.4159 224.981 75.4159Z" fill="url(#paint21_radial)"/>
<path d="M209.949 78.9349C209.9 78.9349 209.852 78.9041 209.828 78.8659C209.8 78.8221 209.795 78.7704 209.792 78.7205C209.775 78.4458 209.776 78.1709 209.779 77.8961C209.78 77.8246 209.799 77.7458 209.896 77.7274C209.906 77.7257 209.916 77.7246 209.927 77.7246C209.986 77.7246 210.05 77.7534 210.077 77.7972C210.105 77.8424 210.104 77.8961 210.103 77.9472C210.096 78.2119 210.089 78.4764 210.082 78.7411C210.081 78.7795 210.08 78.8188 210.065 78.8549C210.049 78.8911 210.016 78.9241 209.972 78.9326C209.964 78.934 209.957 78.9349 209.949 78.9349Z" fill="url(#paint22_radial)"/>
<path d="M211.637 71.6874C211.637 71.6874 211.637 71.6874 211.637 71.687C211.91 71.6744 212.29 71.6566 212.737 71.6367L211.637 71.6874Z" fill="url(#paint23_radial)"/>
<path d="M211.637 71.6895C211.64 71.6839 212.411 70.399 212.944 69.8505C213.507 69.2713 214.535 68.5254 215.173 68.0828C215.441 68.0703 215.72 68.0593 216.001 68.0508C215.46 68.4669 214.597 69.1826 214.008 69.9249C213.486 70.5818 212.739 71.6365 212.737 71.6392C212.29 71.6591 211.91 71.6768 211.637 71.6895Z" fill="url(#paint24_radial)"/>
<path d="M215.174 68.0795C215.506 67.849 215.732 67.7007 215.732 67.7007L216.503 67.6777C216.503 67.6777 216.302 67.8168 216.002 68.0475C215.721 68.056 215.442 68.0671 215.174 68.0795Z" fill="url(#paint25_radial)"/>
<path d="M215.242 71.5329C215.888 71.5094 216.53 71.4887 217.1 71.4755L215.242 71.5329ZM220.232 67.7576C220.045 67.746 219.847 67.7351 219.642 67.7252C219.642 67.7246 219.642 67.7246 219.642 67.7246L220.241 67.7492C220.241 67.7492 220.238 67.7523 220.232 67.7576Z" fill="url(#paint26_radial)"/>
<path d="M215.242 71.5337C215.248 71.5272 216.32 70.2548 217.137 69.537C217.67 69.0685 218.57 68.4428 219.134 68.0625C219.385 68.0724 219.628 68.084 219.858 68.0967C219.41 68.5066 218.683 69.1891 218.31 69.6295C217.749 70.2921 217.104 71.4702 217.1 71.4763C216.53 71.4896 215.888 71.5102 215.242 71.5337Z" fill="url(#paint27_radial)"/>
<path d="M219.857 68.0992C219.626 68.0865 219.383 68.0749 219.133 68.065C219.423 67.8694 219.624 67.7392 219.64 67.7285C219.846 67.7384 220.044 67.7494 220.231 67.761C220.194 67.7941 220.052 67.9209 219.857 68.0992Z" fill="url(#paint28_radial)"/>
<path d="M222.25 71.6148L221.021 71.5429C221.478 71.5661 221.895 71.5913 222.25 71.6148ZM222.956 70.0621L222.875 69.8086L222.956 70.0621Z" fill="url(#paint29_radial)"/>
<path d="M222.25 71.6183C221.895 71.5948 221.478 71.5696 221.021 71.5464C221.049 71.5428 222.24 70.4153 222.698 69.9805L222.872 70.5441L222.25 71.6183Z" fill="url(#paint30_radial)"/>
<path d="M222.871 70.5406L222.697 69.977C222.806 69.8734 222.874 69.8093 222.874 69.8086L222.955 70.0621L223.023 70.279L222.871 70.5406Z" fill="url(#paint31_radial)"/>
<path d="M219.629 76.4344H215.005C214.851 76.4344 214.725 76.3072 214.725 76.1502V75.5968C214.725 75.4396 214.851 75.3125 215.005 75.3125H219.629C219.785 75.3125 219.91 75.4396 219.91 75.5968V76.1502C219.91 76.3072 219.785 76.4344 219.629 76.4344Z" fill="url(#paint32_radial)"/>
<path d="M210.799 74.0324C210.799 74.5302 210.402 74.9335 209.911 74.9335C209.421 74.9335 209.023 74.5302 209.023 74.0324C209.023 73.5345 209.421 73.1309 209.911 73.1309C210.402 73.1309 210.799 73.5345 210.799 74.0324Z" fill="url(#paint33_radial)"/>
<path d="M210.666 74.0429C210.666 74.4679 210.327 74.8122 209.908 74.8122C209.49 74.8122 209.15 74.4679 209.15 74.0429C209.15 73.6181 209.49 73.2734 209.908 73.2734C210.327 73.2734 210.666 73.6181 210.666 74.0429Z" fill="url(#paint34_radial)"/>
<path d="M210.346 73.416C210.453 73.5484 210.517 73.7177 210.517 73.9021C210.517 74.3271 210.177 74.6718 209.759 74.6718C209.595 74.6718 209.444 74.6189 209.32 74.5296C209.459 74.7022 209.671 74.8127 209.908 74.8127C210.326 74.8127 210.665 74.4684 210.665 74.0434C210.665 73.7844 210.539 73.5553 210.346 73.416Z" fill="url(#paint35_radial)"/>
<path d="M209.595 74.3666C209.519 74.3666 209.441 74.3299 209.391 74.2697C209.314 74.177 209.297 74.0452 209.316 73.9253C209.351 73.7078 209.509 73.5236 209.711 73.4485C209.756 73.4315 209.84 73.416 209.925 73.416C210.055 73.416 210.186 73.4527 210.184 73.5787C210.182 73.6589 210.089 73.7005 210.01 73.7114C209.932 73.7225 209.84 73.7295 209.798 73.7971C209.753 73.8677 209.79 73.9593 209.806 74.0414C209.826 74.1471 209.799 74.2703 209.712 74.3313C209.677 74.3556 209.637 74.3666 209.595 74.3666Z" fill="url(#paint36_radial)"/>
<path d="M212.678 74.0105C212.678 74.5087 212.281 74.912 211.79 74.912C211.3 74.912 210.902 74.5087 210.902 74.0105C210.902 73.5128 211.3 73.1094 211.79 73.1094C212.281 73.1094 212.678 73.5128 212.678 74.0105Z" fill="url(#paint37_radial)"/>
<path d="M212.549 74.0212C212.549 74.4461 212.21 74.7908 211.791 74.7908C211.373 74.7908 211.033 74.4461 211.033 74.0212C211.033 73.5964 211.373 73.252 211.791 73.252C212.21 73.252 212.549 73.5964 212.549 74.0212Z" fill="url(#paint38_radial)"/>
<path d="M212.229 73.3926C212.336 73.5253 212.399 73.6946 212.399 73.879C212.399 74.304 212.06 74.6483 211.642 74.6483C211.478 74.6483 211.327 74.5958 211.203 74.5065C211.342 74.6791 211.554 74.7896 211.791 74.7896C212.209 74.7896 212.548 74.4449 212.548 74.0201C212.548 73.7609 212.422 73.5322 212.229 73.3926Z" fill="url(#paint39_radial)"/>
<path d="M211.476 74.3435C211.4 74.3435 211.322 74.3065 211.272 74.2466C211.195 74.1539 211.177 74.022 211.197 73.9022C211.232 73.6847 211.39 73.5005 211.592 73.4254C211.637 73.4085 211.721 73.3926 211.806 73.3926C211.936 73.3926 212.067 73.4297 212.065 73.5556C212.063 73.6356 211.97 73.6774 211.891 73.6883C211.813 73.6994 211.721 73.7064 211.679 73.774C211.634 73.8446 211.671 73.9359 211.686 74.0184C211.706 74.124 211.68 74.247 211.593 74.3082C211.558 74.3325 211.518 74.3435 211.476 74.3435Z" fill="url(#paint40_radial)"/>
<path d="M223.795 74.0949C223.795 74.5926 223.398 74.996 222.907 74.996C222.417 74.996 222.02 74.5926 222.02 74.0949C222.02 73.5967 222.417 73.1934 222.907 73.1934C223.398 73.1934 223.795 73.5967 223.795 74.0949Z" fill="url(#paint41_radial)"/>
<path d="M223.666 74.1052C223.666 74.5303 223.327 74.8747 222.908 74.8747C222.49 74.8747 222.15 74.5303 222.15 74.1052C222.15 73.6802 222.49 73.3359 222.908 73.3359C223.327 73.3359 223.666 73.6802 223.666 74.1052Z" fill="url(#paint42_radial)"/>
<path d="M223.346 73.4766C223.453 73.6091 223.517 73.7783 223.517 73.9628C223.517 74.3877 223.177 74.7321 222.759 74.7321C222.595 74.7321 222.444 74.6795 222.32 74.5903C222.459 74.7629 222.671 74.8733 222.907 74.8733C223.326 74.8733 223.665 74.5289 223.665 74.1038C223.665 73.8447 223.539 73.6158 223.346 73.4766Z" fill="url(#paint43_radial)"/>
<path d="M222.595 74.4273C222.519 74.4273 222.441 74.3905 222.391 74.3304C222.314 74.2377 222.297 74.1057 222.316 73.986C222.35 73.7685 222.509 73.5843 222.711 73.5091C222.756 73.4921 222.84 73.4766 222.925 73.4766C223.055 73.4766 223.186 73.5133 223.184 73.6393C223.182 73.7196 223.088 73.7611 223.01 73.7721C222.932 73.7831 222.84 73.7902 222.797 73.8577C222.753 73.9284 222.79 74.0196 222.806 74.1021C222.825 74.2078 222.799 74.3306 222.712 74.392C222.677 74.4162 222.636 74.4273 222.595 74.4273Z" fill="url(#paint44_radial)"/>
<path d="M225.694 74.1027C225.694 74.6005 225.296 75.0038 224.806 75.0038C224.315 75.0038 223.918 74.6005 223.918 74.1027C223.918 73.6049 224.315 73.2012 224.806 73.2012C225.296 73.2012 225.694 73.6049 225.694 74.1027Z" fill="url(#paint45_radial)"/>
<path d="M225.565 74.1111C225.565 74.5363 225.225 74.8806 224.807 74.8806C224.388 74.8806 224.049 74.5363 224.049 74.1111C224.049 73.6862 224.388 73.3418 224.807 73.3418C225.225 73.3418 225.565 73.6862 225.565 74.1111Z" fill="url(#paint46_radial)"/>
<path d="M225.244 73.4844C225.351 73.6168 225.415 73.7861 225.415 73.9705C225.415 74.3955 225.076 74.7398 224.657 74.7398C224.494 74.7398 224.342 74.6873 224.219 74.598C224.358 74.7706 224.569 74.881 224.806 74.881C225.224 74.881 225.564 74.5367 225.564 74.1115C225.564 73.8527 225.438 73.6236 225.244 73.4844Z" fill="url(#paint47_radial)"/>
<path d="M224.494 74.435C224.418 74.435 224.339 74.398 224.289 74.3381C224.212 74.2454 224.195 74.1135 224.214 73.9937C224.249 73.7762 224.408 73.592 224.61 73.5168C224.655 73.4999 224.739 73.4844 224.824 73.4844C224.953 73.4844 225.085 73.5211 225.082 73.647C225.08 73.7273 224.987 73.7689 224.909 73.7798C224.831 73.7908 224.739 73.7979 224.696 73.8654C224.651 73.9361 224.689 74.0273 224.704 74.1099C224.724 74.2155 224.698 74.3386 224.61 74.3997C224.576 74.4239 224.535 74.435 224.494 74.435Z" fill="url(#paint48_radial)"/>
<path d="M216.904 72.7275C216.795 72.7721 216.712 72.882 216.753 72.9792C216.778 73.0371 216.841 73.0781 216.908 73.1018C216.975 73.1253 217.047 73.1346 217.118 73.149C217.291 73.1845 217.463 73.2606 217.552 73.3919C217.609 73.2218 217.826 73.1309 218.029 73.0896C218.134 73.0681 218.259 73.0422 218.297 72.9558C218.325 72.891 218.286 72.8158 218.224 72.7718C218.161 72.728 218.079 72.7091 217.999 72.6958C217.787 72.6602 217.578 72.665 217.363 72.676C217.214 72.684 217.042 72.671 216.904 72.7275Z" fill="url(#paint49_radial)"/>
<path d="M224.772 83.4204C220.05 87.537 212.85 87.0983 208.683 82.3879C204.54 77.6824 205 70.5443 209.736 66.4307C214.452 62.2941 221.657 62.7532 225.809 67.4462C229.982 72.1487 229.504 79.3016 224.772 83.4204ZM242.668 74.1255C242.641 73.1554 242.547 72.1967 242.405 71.2578L237.371 70.4303L235.665 65.7034L239.019 61.8873C238.002 60.2072 236.791 58.661 235.423 57.2699L230.86 59.5441L226.676 56.72L227.128 51.6685C225.393 50.9422 223.558 50.396 221.653 50.0684L219.282 54.5635L214.222 54.6812L211.623 50.3102C209.678 50.7503 207.818 51.4053 206.074 52.2564L206.82 57.2731L202.798 60.3269L198.112 58.3189C196.826 59.78 195.704 61.3904 194.782 63.1269L198.348 66.7459L196.912 71.5588L191.931 72.6726C191.842 73.6684 191.803 74.6862 191.835 75.7204C191.871 76.6643 191.956 77.5897 192.085 78.5023L197.12 79.3446L198.811 84.0767L195.435 87.884C196.455 89.565 197.66 91.1281 199.029 92.5231L203.601 90.2634L207.777 93.0992L207.304 98.1521C209.094 98.9043 210.983 99.4706 212.946 99.8035L215.304 95.2978L220.364 95.1588L222.971 99.5235C224.915 99.0752 226.771 98.4104 228.514 97.5556L227.754 92.5415L231.762 89.4707L236.453 91.4659C237.74 89.9946 238.859 88.3816 239.773 86.6467L236.186 83.0422L237.605 78.2148L242.589 77.0931C242.669 76.1148 242.703 75.1233 242.668 74.1255Z" fill="url(#paint50_linear)"/>
<path d="M227.183 86.1431C220.946 91.5828 211.433 90.9735 205.953 84.7803C200.457 78.5755 201.075 69.1432 207.312 63.697C213.556 58.2563 223.075 58.8735 228.556 65.0687C234.039 71.2606 233.427 80.7022 227.183 86.1431ZM229.785 63.9987C223.707 57.1301 213.154 56.4459 206.232 62.4777C199.318 68.5158 198.632 78.9729 204.725 85.8516C210.802 92.7179 221.347 93.3936 228.262 87.3627C235.184 81.3309 235.863 70.863 229.785 63.9987Z" fill="#D8D9DA"/>
<path d="M207.609 92.9837L207.776 93.0968L207.388 98.1066L207.303 98.1496C209.093 98.9019 210.982 99.4681 212.945 99.801L212.899 99.7192L215.303 95.2954L220.363 95.1564L223.021 99.4349L222.971 99.521C224.914 99.0728 226.77 98.4079 228.514 97.5531L228.43 97.5173L227.753 92.5391L231.761 89.4683L236.447 91.3783L236.452 91.4634C237.739 89.9921 238.858 88.3791 239.772 86.6442L239.684 86.6679L236.185 83.0397L237.604 78.2123L242.523 77.0285L242.588 77.0907C242.668 76.1123 242.702 75.1208 242.667 74.123C242.64 73.1529 242.546 72.1942 242.404 71.2553L242.35 71.3273L240.938 71.0723C231.484 84.6037 218.169 90.4683 207.609 92.9837Z" fill="url(#paint51_linear)"/>
<path d="M228.261 87.3634C230.636 85.2939 232.275 82.7026 233.159 79.9141C232.234 80.7514 231.293 81.5425 230.341 82.2895C229.533 83.7033 228.481 85.011 227.182 86.1438C224.343 88.6194 220.825 89.838 217.318 89.8518C216.177 90.3257 215.044 90.7553 213.926 91.1444C218.861 92.1375 224.19 90.9137 228.261 87.3634Z" fill="#B1B2B3"/>
</g>
<g filter="url(#filter3_d)">
<path d="M304.239 110L301.279 101.68H290.039L287.199 110H283.359L293.119 81.68H297.839L307.959 110H304.239ZM291.159 98.48H300.119L295.559 85.64L291.159 98.48ZM311.586 105.76C312.786 106.267 313.812 106.64 314.666 106.88C315.546 107.12 316.452 107.24 317.386 107.24C318.586 107.24 319.519 106.987 320.186 106.48C320.879 105.973 321.226 105.227 321.226 104.24C321.226 103.627 321.039 103.133 320.666 102.76C320.319 102.36 319.919 102.067 319.466 101.88C319.039 101.693 318.226 101.4 317.026 101C316.839 100.947 316.132 100.707 314.906 100.28C313.679 99.8533 312.732 99.1867 312.066 98.28C311.426 97.3733 311.106 96.2533 311.106 94.92C311.106 93.2667 311.746 91.88 313.026 90.76C314.306 89.64 316.186 89.08 318.666 89.08C319.706 89.08 320.679 89.2 321.586 89.44C322.519 89.68 323.492 90 324.506 90.4L323.506 93.36C322.626 93.0133 321.799 92.7333 321.026 92.52C320.279 92.3067 319.492 92.2 318.666 92.2C317.412 92.2 316.466 92.4533 315.826 92.96C315.186 93.44 314.866 94.08 314.866 94.88C314.866 95.6267 315.119 96.1867 315.626 96.56C316.132 96.9067 316.946 97.28 318.066 97.68C318.359 97.76 318.626 97.8533 318.866 97.96L319.826 98.32C320.946 98.6933 321.839 99.0667 322.506 99.44C323.199 99.8133 323.786 100.387 324.266 101.16C324.746 101.907 324.986 102.907 324.986 104.16C324.986 106.133 324.279 107.667 322.866 108.76C321.479 109.827 319.666 110.36 317.426 110.36C316.119 110.36 314.906 110.227 313.786 109.96C312.666 109.667 311.546 109.28 310.426 108.8L311.586 105.76ZM330.258 105.76C331.458 106.267 332.484 106.64 333.338 106.88C334.218 107.12 335.124 107.24 336.058 107.24C337.258 107.24 338.191 106.987 338.858 106.48C339.551 105.973 339.898 105.227 339.898 104.24C339.898 103.627 339.711 103.133 339.338 102.76C338.991 102.36 338.591 102.067 338.138 101.88C337.711 101.693 336.898 101.4 335.698 101C335.511 100.947 334.804 100.707 333.578 100.28C332.351 99.8533 331.404 99.1867 330.738 98.28C330.098 97.3733 329.778 96.2533 329.778 94.92C329.778 93.2667 330.418 91.88 331.698 90.76C332.978 89.64 334.858 89.08 337.338 89.08C338.378 89.08 339.351 89.2 340.258 89.44C341.191 89.68 342.164 90 343.178 90.4L342.178 93.36C341.298 93.0133 340.471 92.7333 339.698 92.52C338.951 92.3067 338.164 92.2 337.338 92.2C336.084 92.2 335.138 92.4533 334.498 92.96C333.858 93.44 333.538 94.08 333.538 94.88C333.538 95.6267 333.791 96.1867 334.298 96.56C334.804 96.9067 335.618 97.28 336.738 97.68C337.031 97.76 337.298 97.8533 337.538 97.96L338.498 98.32C339.618 98.6933 340.511 99.0667 341.178 99.44C341.871 99.8133 342.458 100.387 342.938 101.16C343.418 101.907 343.658 102.907 343.658 104.16C343.658 106.133 342.951 107.667 341.538 108.76C340.151 109.827 338.338 110.36 336.098 110.36C334.791 110.36 333.578 110.227 332.458 109.96C331.338 109.667 330.218 109.28 329.098 108.8L330.258 105.76ZM349.21 81.68H352.89V85.16H349.21V81.68ZM349.21 89.44H352.89V110H349.21V89.44ZM359.476 105.76C360.676 106.267 361.703 106.64 362.556 106.88C363.436 107.12 364.343 107.24 365.276 107.24C366.476 107.24 367.41 106.987 368.076 106.48C368.77 105.973 369.116 105.227 369.116 104.24C369.116 103.627 368.93 103.133 368.556 102.76C368.21 102.36 367.81 102.067 367.356 101.88C366.93 101.693 366.116 101.4 364.916 101C364.73 100.947 364.023 100.707 362.796 100.28C361.57 99.8533 360.623 99.1867 359.956 98.28C359.316 97.3733 358.996 96.2533 358.996 94.92C358.996 93.2667 359.636 91.88 360.916 90.76C362.196 89.64 364.076 89.08 366.556 89.08C367.596 89.08 368.57 89.2 369.476 89.44C370.41 89.68 371.383 90 372.396 90.4L371.396 93.36C370.516 93.0133 369.69 92.7333 368.916 92.52C368.17 92.3067 367.383 92.2 366.556 92.2C365.303 92.2 364.356 92.4533 363.716 92.96C363.076 93.44 362.756 94.08 362.756 94.88C362.756 95.6267 363.01 96.1867 363.516 96.56C364.023 96.9067 364.836 97.28 365.956 97.68C366.25 97.76 366.516 97.8533 366.756 97.96L367.716 98.32C368.836 98.6933 369.73 99.0667 370.396 99.44C371.09 99.8133 371.676 100.387 372.156 101.16C372.636 101.907 372.876 102.907 372.876 104.16C372.876 106.133 372.17 107.667 370.756 108.76C369.37 109.827 367.556 110.36 365.316 110.36C364.01 110.36 362.796 110.227 361.676 109.96C360.556 109.667 359.436 109.28 358.316 108.8L359.476 105.76ZM376.148 92.32V89.44H380.068L380.708 83.44H383.508V89.44H389.788V92.32H383.508V103.68C383.508 106.053 384.508 107.24 386.508 107.24C387.308 107.24 388.295 107.053 389.468 106.68L390.108 109.32C388.642 109.933 387.215 110.24 385.828 110.24C384.042 110.24 382.575 109.707 381.428 108.64C380.308 107.573 379.748 105.987 379.748 103.88V92.32H376.148Z" fill="url(#paint52_linear)"/>
</g>
<g filter="url(#filter4_d)">
<path d="M7.83594 96.76C7.83594 92.2267 8.95594 88.6933 11.1959 86.16C13.4359 83.6267 16.6493 82.36 20.8359 82.36C25.0226 82.36 28.2359 83.6267 30.4759 86.16C32.7159 88.6933 33.8359 92.2267 33.8359 96.76C33.8359 101.347 32.7026 104.947 30.4359 107.56C28.1693 110.147 24.9693 111.44 20.8359 111.44C16.6759 111.44 13.4626 110.147 11.1959 107.56C8.95594 104.973 7.83594 101.373 7.83594 96.76ZM20.8359 108.24C23.7159 108.24 25.9293 107.28 27.4759 105.36C29.0493 103.413 29.8359 100.547 29.8359 96.76C29.8359 93.0533 29.0493 90.2667 27.4759 88.4C25.9293 86.5067 23.7159 85.56 20.8359 85.56C17.9559 85.56 15.7293 86.4933 14.1559 88.36C12.6093 90.2267 11.8359 93.0267 11.8359 96.76C11.8359 100.573 12.6093 103.44 14.1559 105.36C15.7293 107.28 17.9559 108.24 20.8359 108.24ZM49.8359 90.08C52.0226 90.08 53.6893 90.7067 54.8359 91.96C56.0093 93.2133 56.5959 95.0267 56.5959 97.4V111H52.8359V97.68C52.8359 96.0533 52.5159 94.88 51.8759 94.16C51.2626 93.4133 50.2626 93.04 48.8759 93.04C47.6226 93.04 46.4759 93.3333 45.4359 93.92C44.3959 94.48 43.5426 95.2667 42.8759 96.28V111H39.1159V90.44H42.1959L42.6359 93.32C44.4759 91.16 46.8759 90.08 49.8359 90.08ZM78.3441 111L71.5041 99.36H71.4241H66.9041V111H63.0641V82.68H71.4241C74.6507 82.68 77.0774 83.4133 78.7041 84.88C80.3307 86.32 81.1441 88.36 81.1441 91C81.1441 93 80.6507 94.68 79.6641 96.04C78.7041 97.3733 77.2774 98.3067 75.3841 98.84L82.5441 111H78.3441ZM66.9041 96.16H71.4241C73.2641 96.16 74.6774 95.72 75.6641 94.84C76.6507 93.96 77.1441 92.68 77.1441 91C77.1441 89.32 76.6507 88.0533 75.6641 87.2C74.7041 86.32 73.2907 85.88 71.4241 85.88H66.9041V96.16ZM85.3322 100.68C85.3322 97.3467 86.1722 94.7467 87.8522 92.88C89.5589 91.0133 91.9722 90.08 95.0922 90.08C98.2122 90.08 100.612 91.0133 102.292 92.88C103.999 94.7467 104.852 97.3467 104.852 100.68C104.852 104.013 103.999 106.627 102.292 108.52C100.612 110.387 98.2122 111.32 95.0922 111.32C91.9722 111.32 89.5589 110.387 87.8522 108.52C86.1722 106.627 85.3322 104.013 85.3322 100.68ZM89.1722 100.68C89.1722 103.187 89.6789 105.093 90.6922 106.4C91.7322 107.707 93.1989 108.36 95.0922 108.36C96.9855 108.36 98.4389 107.707 99.4522 106.4C100.492 105.093 101.012 103.187 101.012 100.68C101.012 98.1733 100.492 96.28 99.4522 95C98.4389 93.6933 96.9855 93.04 95.0922 93.04C93.1989 93.04 91.7322 93.6933 90.6922 95C89.6789 96.28 89.1722 98.1733 89.1722 100.68ZM108.455 105.44C108.455 103.253 109.335 101.56 111.095 100.36C112.855 99.16 115.349 98.56 118.575 98.56H121.615V97.76C121.615 96.0533 121.255 94.84 120.535 94.12C119.842 93.4 118.642 93.04 116.935 93.04C115.842 93.04 114.869 93.1467 114.015 93.36C113.162 93.5467 112.069 93.9333 110.735 94.52L109.615 91.92C112.122 90.6933 114.589 90.08 117.015 90.08C119.922 90.08 122.042 90.7067 123.375 91.96C124.709 93.1867 125.375 95.1467 125.375 97.84V111H122.455C122.429 110.893 122.375 110.64 122.295 110.24C122.215 109.813 122.095 109.267 121.935 108.6C120.015 110.52 117.775 111.48 115.215 111.48C113.162 111.48 111.522 110.933 110.295 109.84C109.069 108.747 108.455 107.28 108.455 105.44ZM112.215 105.36C112.215 106.373 112.535 107.16 113.175 107.72C113.815 108.253 114.735 108.52 115.935 108.52C117.002 108.52 118.042 108.28 119.055 107.8C120.069 107.293 120.922 106.613 121.615 105.76V101.36H118.815C116.629 101.36 114.975 101.693 113.855 102.36C112.762 103.027 112.215 104.027 112.215 105.36ZM148.973 80.64V110.96H145.933L145.413 108.44C143.893 110.36 141.866 111.32 139.333 111.32C136.48 111.32 134.253 110.44 132.653 108.68C131.08 106.893 130.293 104.347 130.293 101.04C130.293 97.6 131.226 94.92 133.093 93C134.986 91.0533 137.573 90.08 140.853 90.08C142.266 90.08 143.72 90.2667 145.213 90.64V80.64H148.973ZM139.573 108.36C140.96 108.36 142.146 107.987 143.133 107.24C144.146 106.467 144.84 105.4 145.213 104.04V93.64C143.853 93.24 142.413 93.04 140.893 93.04C138.786 93.04 137.133 93.7467 135.933 95.16C134.733 96.5467 134.133 98.5067 134.133 101.04C134.133 103.387 134.6 105.2 135.533 106.48C136.493 107.733 137.84 108.36 139.573 108.36Z" fill="url(#paint53_linear)"/>
</g>
<defs>
<filter id="filter0_d" x="132" y="0" width="97.7168" height="136.842" filterUnits="userSpaceOnUse" color-interpolation-filters="sRGB">
<feFlood flood-opacity="0" result="BackgroundImageFix"/>
<feColorMatrix in="SourceAlpha" type="matrix" values="0 0 0 0 0 0 0 0 0 0 0 0 0 0 0 0 0 0 127 0" result="hardAlpha"/>
<feOffset dx="7" dy="7"/>
<feGaussianBlur stdDeviation="5"/>
<feComposite in2="hardAlpha" operator="out"/>
<feColorMatrix type="matrix" values="0 0 0 0 0 0 0 0 0 0 0 0 0 0 0 0 0 0 0.25 0"/>
<feBlend mode="normal" in2="BackgroundImageFix" result="effect1_dropShadow"/>
<feBlend mode="normal" in="SourceGraphic" in2="effect1_dropShadow" result="shape"/>
</filter>
<filter id="filter1_d" x="219.283" y="0" width="97.7168" height="136.842" filterUnits="userSpaceOnUse" color-interpolation-filters="sRGB">
<feFlood flood-opacity="0" result="BackgroundImageFix"/>
<feColorMatrix in="SourceAlpha" type="matrix" values="0 0 0 0 0 0 0 0 0 0 0 0 0 0 0 0 0 0 127 0" result="hardAlpha"/>
<feOffset dx="7" dy="7"/>
<feGaussianBlur stdDeviation="5"/>
<feComposite in2="hardAlpha" operator="out"/>
<feColorMatrix type="matrix" values="0 0 0 0 0 0 0 0 0 0 0 0 0 0 0 0 0 0 0.25 0"/>
<feBlend mode="normal" in2="BackgroundImageFix" result="effect1_dropShadow"/>
<feBlend mode="normal" in="SourceGraphic" in2="effect1_dropShadow" result="shape"/>
</filter>
<filter id="filter2_d" x="186.824" y="50.0684" width="90.8574" height="99.7344" filterUnits="userSpaceOnUse" color-interpolation-filters="sRGB">
<feFlood flood-opacity="0" result="BackgroundImageFix"/>
<feColorMatrix in="SourceAlpha" type="matrix" values="0 0 0 0 0 0 0 0 0 0 0 0 0 0 0 0 0 0 127 0" result="hardAlpha"/>
<feOffset dx="15" dy="30"/>
<feGaussianBlur stdDeviation="10"/>
<feColorMatrix type="matrix" values="0 0 0 0 0 0 0 0 0 0 0 0 0 0 0 0 0 0 0.5 0"/>
<feBlend mode="normal" in2="BackgroundImageFix" result="effect1_dropShadow"/>
<feBlend mode="normal" in="SourceGraphic" in2="effect1_dropShadow" result="shape"/>
</filter>
<filter id="filter3_d" x="279.359" y="81.6797" width="114.748" height="36.6797" filterUnits="userSpaceOnUse" color-interpolation-filters="sRGB">
<feFlood flood-opacity="0" result="BackgroundImageFix"/>
<feColorMatrix in="SourceAlpha" type="matrix" values="0 0 0 0 0 0 0 0 0 0 0 0 0 0 0 0 0 0 127 0" result="hardAlpha"/>
<feOffset dy="4"/>
<feGaussianBlur stdDeviation="2"/>
<feComposite in2="hardAlpha" operator="out"/>
<feColorMatrix type="matrix" values="0 0 0 0 0 0 0 0 0 0 0 0 0 0 0 0 0 0 0.25 0"/>
<feBlend mode="normal" in2="BackgroundImageFix" result="effect1_dropShadow"/>
<feBlend mode="normal" in="SourceGraphic" in2="effect1_dropShadow" result="shape"/>
</filter>
<filter id="filter4_d" x="3.83594" y="80.6406" width="149.137" height="38.8398" filterUnits="userSpaceOnUse" color-interpolation-filters="sRGB">
<feFlood flood-opacity="0" result="BackgroundImageFix"/>
<feColorMatrix in="SourceAlpha" type="matrix" values="0 0 0 0 0 0 0 0 0 0 0 0 0 0 0 0 0 0 127 0" result="hardAlpha"/>
<feOffset dy="4"/>
<feGaussianBlur stdDeviation="2"/>
<feComposite in2="hardAlpha" operator="out"/>
<feColorMatrix type="matrix" values="0 0 0 0 0 0 0 0 0 0 0 0 0 0 0 0 0 0 0.25 0"/>
<feBlend mode="normal" in2="BackgroundImageFix" result="effect1_dropShadow"/>
<feBlend mode="normal" in="SourceGraphic" in2="effect1_dropShadow" result="shape"/>
</filter>
<linearGradient id="paint0_linear" x1="182.401" y1="134.903" x2="129.874" y2="5.14867" gradientUnits="userSpaceOnUse">
<stop offset="0.32643" stop-color="#FFA500"/>
<stop offset="0.651081" stop-color="#CC8400"/>
<stop offset="1"/>
</linearGradient>
<linearGradient id="paint1_linear" x1="252.599" y1="134.903" x2="305.126" y2="5.14868" gradientUnits="userSpaceOnUse">
<stop offset="0.32643" stop-color="#FFA500"/>
<stop offset="0.651081" stop-color="#CC8400"/>
<stop offset="1"/>
</linearGradient>
<radialGradient id="paint2_radial" cx="0" cy="0" r="1" gradientUnits="userSpaceOnUse" gradientTransform="translate(209.021 71.0698) rotate(90) scale(0.579532 0.997593)">
<stop stop-color="#FFA500"/>
<stop offset="0.567708" stop-color="#B97905"/>
<stop offset="1" stop-color="#120607"/>
</radialGradient>
<radialGradient id="paint3_radial" cx="0" cy="0" r="1" gradientUnits="userSpaceOnUse" gradientTransform="translate(210.06 71.5808) rotate(90) scale(0.510505 0.524848)">
<stop stop-color="#FFA500"/>
<stop offset="0.567708" stop-color="#B97905"/>
<stop offset="1" stop-color="#120607"/>
</radialGradient>
<radialGradient id="paint4_radial" cx="0" cy="0" r="1" gradientUnits="userSpaceOnUse" gradientTransform="translate(225.498 71.0072) rotate(90) scale(0.585306 0.998175)">
<stop stop-color="#FFA500"/>
<stop offset="0.567708" stop-color="#B97905"/>
<stop offset="1" stop-color="#120607"/>
</radialGradient>
<radialGradient id="paint5_radial" cx="0" cy="0" r="1" gradientUnits="userSpaceOnUse" gradientTransform="translate(224.456 71.5078) rotate(90) scale(0.507801 0.526701)">
<stop stop-color="#FFA500"/>
<stop offset="0.567708" stop-color="#B97905"/>
<stop offset="1" stop-color="#120607"/>
</radialGradient>
<radialGradient id="paint6_radial" cx="0" cy="0" r="1" gradientUnits="userSpaceOnUse" gradientTransform="translate(217.279 79.7237) rotate(90) scale(0.190529 9.06647)">
<stop stop-color="#FFA500"/>
<stop offset="0.567708" stop-color="#B97905"/>
<stop offset="1" stop-color="#120607"/>
</radialGradient>
<radialGradient id="paint7_radial" cx="0" cy="0" r="1" gradientUnits="userSpaceOnUse" gradientTransform="translate(224.35 78.519) rotate(90) scale(1.09716 1.04964)">
<stop stop-color="#FFA500"/>
<stop offset="0.567708" stop-color="#B97905"/>
<stop offset="1" stop-color="#120607"/>
</radialGradient>
<radialGradient id="paint8_radial" cx="0" cy="0" r="1" gradientUnits="userSpaceOnUse" gradientTransform="translate(224.35 78.519) rotate(90) scale(1.09716 1.04964)">
<stop stop-color="#FFA500"/>
<stop offset="0.567708" stop-color="#B97905"/>
<stop offset="1" stop-color="#120607"/>
</radialGradient>
<radialGradient id="paint9_radial" cx="0" cy="0" r="1" gradientUnits="userSpaceOnUse" gradientTransform="translate(223.702 78.3297) rotate(90) scale(0.605135 0.162922)">
<stop stop-color="#FFA500"/>
<stop offset="0.567708" stop-color="#B97905"/>
<stop offset="1" stop-color="#120607"/>
</radialGradient>
<radialGradient id="paint10_radial" cx="0" cy="0" r="1" gradientUnits="userSpaceOnUse" gradientTransform="translate(210.585 78.519) rotate(90) scale(1.09716 1.04959)">
<stop stop-color="#FFA500"/>
<stop offset="0.567708" stop-color="#B97905"/>
<stop offset="1" stop-color="#120607"/>
</radialGradient>
<radialGradient id="paint11_radial" cx="0" cy="0" r="1" gradientUnits="userSpaceOnUse" gradientTransform="translate(210.585 78.519) rotate(90) scale(1.09716 1.04959)">
<stop stop-color="#FFA500"/>
<stop offset="0.567708" stop-color="#B97905"/>
<stop offset="1" stop-color="#120607"/>
</radialGradient>
<radialGradient id="paint12_radial" cx="0" cy="0" r="1" gradientUnits="userSpaceOnUse" gradientTransform="translate(217.272 69.6435) rotate(90) scale(2.33099 7.09434)">
<stop stop-color="#FFA500"/>
<stop offset="0.567708" stop-color="#B97905"/>
<stop offset="1" stop-color="#120607"/>
</radialGradient>
<radialGradient id="paint13_radial" cx="0" cy="0" r="1" gradientUnits="userSpaceOnUse" gradientTransform="translate(217.273 74.7545) rotate(90) scale(2.78184 8.82194)">
<stop stop-color="#FFA500"/>
<stop offset="0.567708" stop-color="#B97905"/>
<stop offset="1" stop-color="#120607"/>
</radialGradient>
<radialGradient id="paint14_radial" cx="0" cy="0" r="1" gradientUnits="userSpaceOnUse" gradientTransform="translate(217.291 74.1077) rotate(90) scale(0.687805 7.9234)">
<stop stop-color="#FFA500"/>
<stop offset="0.567708" stop-color="#B97905"/>
<stop offset="1" stop-color="#120607"/>
</radialGradient>
<radialGradient id="paint15_radial" cx="0" cy="0" r="1" gradientUnits="userSpaceOnUse" gradientTransform="translate(217.29 74.1036) rotate(90) scale(0.750087 7.98505)">
<stop stop-color="#FFA500"/>
<stop offset="0.567708" stop-color="#B97905"/>
<stop offset="1" stop-color="#120607"/>
</radialGradient>
<radialGradient id="paint16_radial" cx="0" cy="0" r="1" gradientUnits="userSpaceOnUse" gradientTransform="translate(217.327 69.6893) rotate(90) scale(2.0194 6.14574)">
<stop stop-color="#FFA500"/>
<stop offset="0.567708" stop-color="#B97905"/>
<stop offset="1" stop-color="#120607"/>
</radialGradient>
<radialGradient id="paint17_radial" cx="0" cy="0" r="1" gradientUnits="userSpaceOnUse" gradientTransform="translate(217.327 69.6893) rotate(90) scale(2.0194 6.14574)">
<stop stop-color="#FFA500"/>
<stop offset="0.567708" stop-color="#B97905"/>
<stop offset="1" stop-color="#120607"/>
</radialGradient>
<radialGradient id="paint18_radial" cx="0" cy="0" r="1" gradientUnits="userSpaceOnUse" gradientTransform="translate(217.245 72.3903) rotate(90) scale(0.595332 7.80133)">
<stop stop-color="#FFA500"/>
<stop offset="0.567708" stop-color="#B97905"/>
<stop offset="1" stop-color="#120607"/>
</radialGradient>
<radialGradient id="paint19_radial" cx="0" cy="0" r="1" gradientUnits="userSpaceOnUse" gradientTransform="translate(217.273 76.9225) rotate(90) scale(0.615839 8.7999)">
<stop stop-color="#FFA500"/>
<stop offset="0.567708" stop-color="#B97905"/>
<stop offset="1" stop-color="#120607"/>
</radialGradient>
<radialGradient id="paint20_radial" cx="0" cy="0" r="1" gradientUnits="userSpaceOnUse" gradientTransform="translate(217.279 75.8927) rotate(90) scale(0.857573 9.06647)">
<stop stop-color="#FFA500"/>
<stop offset="0.567708" stop-color="#B97905"/>
<stop offset="1" stop-color="#120607"/>
</radialGradient>
<radialGradient id="paint21_radial" cx="0" cy="0" r="1" gradientUnits="userSpaceOnUse" gradientTransform="translate(216.784 75.2773) rotate(90) scale(0.138607 8.33321)">
<stop stop-color="#FFA500"/>
<stop offset="0.567708" stop-color="#B97905"/>
<stop offset="1" stop-color="#120607"/>
</radialGradient>
<radialGradient id="paint22_radial" cx="0" cy="0" r="1" gradientUnits="userSpaceOnUse" gradientTransform="translate(209.94 78.3297) rotate(90) scale(0.605135 0.162927)">
<stop stop-color="#FFA500"/>
<stop offset="0.567708" stop-color="#B97905"/>
<stop offset="1" stop-color="#120607"/>
</radialGradient>
<radialGradient id="paint23_radial" cx="0" cy="0" r="1" gradientUnits="userSpaceOnUse" gradientTransform="translate(212.187 71.662) rotate(90) scale(0.0253266 0.549973)">
<stop stop-color="#FFA500"/>
<stop offset="0.567708" stop-color="#B97905"/>
<stop offset="1" stop-color="#120607"/>
</radialGradient>
<radialGradient id="paint24_radial" cx="0" cy="0" r="1" gradientUnits="userSpaceOnUse" gradientTransform="translate(213.819 69.8702) rotate(90) scale(1.81938 2.18202)">
<stop stop-color="#FFA500"/>
<stop offset="0.567708" stop-color="#B97905"/>
<stop offset="1" stop-color="#120607"/>
</radialGradient>
<radialGradient id="paint25_radial" cx="0" cy="0" r="1" gradientUnits="userSpaceOnUse" gradientTransform="translate(215.838 67.8786) rotate(90) scale(0.200902 0.664372)">
<stop stop-color="#FFA500"/>
<stop offset="0.567708" stop-color="#B97905"/>
<stop offset="1" stop-color="#120607"/>
</radialGradient>
<radialGradient id="paint26_radial" cx="0" cy="0" r="1" gradientUnits="userSpaceOnUse" gradientTransform="translate(217.742 69.6287) rotate(90) scale(1.90413 2.49965)">
<stop stop-color="#FFA500"/>
<stop offset="0.567708" stop-color="#B97905"/>
<stop offset="1" stop-color="#120607"/>
</radialGradient>
<radialGradient id="paint27_radial" cx="0" cy="0" r="1" gradientUnits="userSpaceOnUse" gradientTransform="translate(217.55 69.7981) rotate(90) scale(1.73562 2.30797)">
<stop stop-color="#FFA500"/>
<stop offset="0.567708" stop-color="#B97905"/>
<stop offset="1" stop-color="#120607"/>
</radialGradient>
<radialGradient id="paint28_radial" cx="0" cy="0" r="1" gradientUnits="userSpaceOnUse" gradientTransform="translate(219.682 67.9139) rotate(90) scale(0.185342 0.548992)">
<stop stop-color="#FFA500"/>
<stop offset="0.567708" stop-color="#B97905"/>
<stop offset="1" stop-color="#120607"/>
</radialGradient>
<radialGradient id="paint29_radial" cx="0" cy="0" r="1" gradientUnits="userSpaceOnUse" gradientTransform="translate(221.989 70.7117) rotate(90) scale(0.903095 0.967018)">
<stop stop-color="#FFA500"/>
<stop offset="0.567708" stop-color="#B97905"/>
<stop offset="1" stop-color="#120607"/>
</radialGradient>
<radialGradient id="paint30_radial" cx="0" cy="0" r="1" gradientUnits="userSpaceOnUse" gradientTransform="translate(221.947 70.7994) rotate(90) scale(0.818894 0.925433)">
<stop stop-color="#FFA500"/>
<stop offset="0.567708" stop-color="#B97905"/>
<stop offset="1" stop-color="#120607"/>
</radialGradient>
<radialGradient id="paint31_radial" cx="0" cy="0" r="1" gradientUnits="userSpaceOnUse" gradientTransform="translate(222.86 70.1746) rotate(90) scale(0.365994 0.162959)">
<stop stop-color="#FFA500"/>
<stop offset="0.567708" stop-color="#B97905"/>
<stop offset="1" stop-color="#120607"/>
</radialGradient>
<radialGradient id="paint32_radial" cx="0" cy="0" r="1" gradientUnits="userSpaceOnUse" gradientTransform="translate(217.317 75.8734) rotate(90) scale(0.560937 2.59274)">
<stop stop-color="#FFA500"/>
<stop offset="0.567708" stop-color="#B97905"/>
<stop offset="1" stop-color="#120607"/>
</radialGradient>
<radialGradient id="paint33_radial" cx="0" cy="0" r="1" gradientUnits="userSpaceOnUse" gradientTransform="translate(209.911 74.0322) rotate(90) scale(0.901329 0.887936)">
<stop stop-color="#FFA500"/>
<stop offset="0.567708" stop-color="#B97905"/>
<stop offset="1" stop-color="#120607"/>
</radialGradient>
<radialGradient id="paint34_radial" cx="0" cy="0" r="1" gradientUnits="userSpaceOnUse" gradientTransform="translate(209.908 74.0428) rotate(90) scale(0.769399 0.757896)">
<stop stop-color="#FFA500"/>
<stop offset="0.567708" stop-color="#B97905"/>
<stop offset="1" stop-color="#120607"/>
</radialGradient>
<radialGradient id="paint35_radial" cx="0" cy="0" r="1" gradientUnits="userSpaceOnUse" gradientTransform="translate(209.993 74.1143) rotate(90) scale(0.69833 0.672547)">
<stop stop-color="#FFA500"/>
<stop offset="0.567708" stop-color="#B97905"/>
<stop offset="1" stop-color="#120607"/>
</radialGradient>
<radialGradient id="paint36_radial" cx="0" cy="0" r="1" gradientUnits="userSpaceOnUse" gradientTransform="translate(209.746 73.8913) rotate(90) scale(0.475301 0.437561)">
<stop stop-color="#FFA500"/>
<stop offset="0.567708" stop-color="#B97905"/>
<stop offset="1" stop-color="#120607"/>
</radialGradient>
<radialGradient id="paint37_radial" cx="0" cy="0" r="1" gradientUnits="userSpaceOnUse" gradientTransform="translate(211.79 74.0107) rotate(90) scale(0.901329 0.887936)">
<stop stop-color="#FFA500"/>
<stop offset="0.567708" stop-color="#B97905"/>
<stop offset="1" stop-color="#120607"/>
</radialGradient>
<radialGradient id="paint38_radial" cx="0" cy="0" r="1" gradientUnits="userSpaceOnUse" gradientTransform="translate(211.791 74.0214) rotate(90) scale(0.769399 0.757896)">
<stop stop-color="#FFA500"/>
<stop offset="0.567708" stop-color="#B97905"/>
<stop offset="1" stop-color="#120607"/>
</radialGradient>
<radialGradient id="paint39_radial" cx="0" cy="0" r="1" gradientUnits="userSpaceOnUse" gradientTransform="translate(211.876 74.0911) rotate(90) scale(0.698496 0.672656)">
<stop stop-color="#FFA500"/>
<stop offset="0.567708" stop-color="#B97905"/>
<stop offset="1" stop-color="#120607"/>
</radialGradient>
<radialGradient id="paint40_radial" cx="0" cy="0" r="1" gradientUnits="userSpaceOnUse" gradientTransform="translate(211.627 73.868) rotate(90) scale(0.475467 0.437562)">
<stop stop-color="#FFA500"/>
<stop offset="0.567708" stop-color="#B97905"/>
<stop offset="1" stop-color="#120607"/>
</radialGradient>
<radialGradient id="paint41_radial" cx="0" cy="0" r="1" gradientUnits="userSpaceOnUse" gradientTransform="translate(222.907 74.0947) rotate(90) scale(0.901329 0.887936)">
<stop stop-color="#FFA500"/>
<stop offset="0.567708" stop-color="#B97905"/>
<stop offset="1" stop-color="#120607"/>
</radialGradient>
<radialGradient id="paint42_radial" cx="0" cy="0" r="1" gradientUnits="userSpaceOnUse" gradientTransform="translate(222.908 74.1053) rotate(90) scale(0.769399 0.757896)">
<stop stop-color="#FFA500"/>
<stop offset="0.567708" stop-color="#B97905"/>
<stop offset="1" stop-color="#120607"/>
</radialGradient>
<radialGradient id="paint43_radial" cx="0" cy="0" r="1" gradientUnits="userSpaceOnUse" gradientTransform="translate(222.993 74.1749) rotate(90) scale(0.698385 0.672492)">
<stop stop-color="#FFA500"/>
<stop offset="0.567708" stop-color="#B97905"/>
<stop offset="1" stop-color="#120607"/>
</radialGradient>
<radialGradient id="paint44_radial" cx="0" cy="0" r="1" gradientUnits="userSpaceOnUse" gradientTransform="translate(222.746 73.9519) rotate(90) scale(0.475357 0.437532)">
<stop stop-color="#FFA500"/>
<stop offset="0.567708" stop-color="#B97905"/>
<stop offset="1" stop-color="#120607"/>
</radialGradient>
<radialGradient id="paint45_radial" cx="0" cy="0" r="1" gradientUnits="userSpaceOnUse" gradientTransform="translate(224.806 74.1025) rotate(90) scale(0.901329 0.887936)">
<stop stop-color="#FFA500"/>
<stop offset="0.567708" stop-color="#B97905"/>
<stop offset="1" stop-color="#120607"/>
</radialGradient>
<radialGradient id="paint46_radial" cx="0" cy="0" r="1" gradientUnits="userSpaceOnUse" gradientTransform="translate(224.807 74.1112) rotate(90) scale(0.769399 0.757896)">
<stop stop-color="#FFA500"/>
<stop offset="0.567708" stop-color="#B97905"/>
<stop offset="1" stop-color="#120607"/>
</radialGradient>
<radialGradient id="paint47_radial" cx="0" cy="0" r="1" gradientUnits="userSpaceOnUse" gradientTransform="translate(224.891 74.1827) rotate(90) scale(0.69833 0.672492)">
<stop stop-color="#FFA500"/>
<stop offset="0.567708" stop-color="#B97905"/>
<stop offset="1" stop-color="#120607"/>
</radialGradient>
<radialGradient id="paint48_radial" cx="0" cy="0" r="1" gradientUnits="userSpaceOnUse" gradientTransform="translate(224.645 73.9597) rotate(90) scale(0.475301 0.437515)">
<stop stop-color="#FFA500"/>
<stop offset="0.567708" stop-color="#B97905"/>
<stop offset="1" stop-color="#120607"/>
</radialGradient>
<radialGradient id="paint49_radial" cx="0" cy="0" r="1" gradientUnits="userSpaceOnUse" gradientTransform="translate(217.524 73.0299) rotate(90) scale(0.361968 0.782018)">
<stop stop-color="#FFA500"/>
<stop offset="0.567708" stop-color="#B97905"/>
<stop offset="1" stop-color="#120607"/>
</radialGradient>
<linearGradient id="paint50_linear" x1="209.203" y1="46.9441" x2="231.301" y2="98.287" gradientUnits="userSpaceOnUse">
<stop stop-color="#FFA500"/>
<stop offset="0.484375" stop-color="#BE7C02"/>
<stop offset="1"/>
</linearGradient>
<linearGradient id="paint51_linear" x1="226.957" y1="71.0722" x2="224.991" y2="103.421" gradientUnits="userSpaceOnUse">
<stop stop-color="#FFA601"/>
<stop offset="1" stop-opacity="0"/>
</linearGradient>
<linearGradient id="paint52_linear" x1="316.878" y1="65.1429" x2="368.001" y2="95.6503" gradientUnits="userSpaceOnUse">
<stop stop-color="#EC9901"/>
<stop offset="1"/>
</linearGradient>
<linearGradient id="paint53_linear" x1="52.9403" y1="66.1429" x2="109.153" y2="109.585" gradientUnits="userSpaceOnUse">
<stop stop-color="#EC9901"/>
<stop offset="1"/>
</linearGradient>
</defs>
</svg>
